<?xml version="1.0" encoding="utf-8"?>
<!-- Generator: Adobe Illustrator 28.0.0, SVG Export Plug-In . SVG Version: 6.00 Build 0)  -->
<svg version="1.1" id="Ebene_1" xmlns="http://www.w3.org/2000/svg" xmlns:xlink="http://www.w3.org/1999/xlink" x="0px" y="0px"
	 viewBox="0 0 200 200" style="enable-background:new 0 0 200 200;" xml:space="preserve">
<style type="text/css">
	.st0{clip-path:url(#SVGID_00000079445632396476371920000014161353249398537380_);fill:#FFFFFF;}
	.st1{clip-path:url(#SVGID_00000079445632396476371920000014161353249398537380_);fill:none;stroke:#83AF38;stroke-width:16.3934;}
	.st2{clip-path:url(#SVGID_00000079445632396476371920000014161353249398537380_);fill:#83AF38;}
	
		.st3{clip-path:url(#SVGID_00000079445632396476371920000014161353249398537380_);fill:none;stroke:#83AF38;stroke-width:2.623;stroke-miterlimit:10;}
	
		.st4{clip-path:url(#SVGID_00000079445632396476371920000014161353249398537380_);fill:none;stroke:#83AF38;stroke-width:3.2787;stroke-miterlimit:10;}
</style>
<g>
	<defs>
		<rect id="SVGID_1_" width="200" height="200"/>
	</defs>
	<clipPath id="SVGID_00000121985524099249633820000017872254627985542847_">
		<use xlink:href="#SVGID_1_"  style="overflow:visible;"/>
	</clipPath>
	<path style="clip-path:url(#SVGID_00000121985524099249633820000017872254627985542847_);fill:#FFFFFF;" d="M100,191.8
		c50.7,0,91.8-41.1,91.8-91.8S150.7,8.2,100,8.2S8.2,49.3,8.2,100S49.3,191.8,100,191.8"/>
	
		<circle style="clip-path:url(#SVGID_00000121985524099249633820000017872254627985542847_);fill:none;stroke:#83AF38;stroke-width:16.3934;" cx="100" cy="100" r="91.8"/>
	<path style="clip-path:url(#SVGID_00000121985524099249633820000017872254627985542847_);fill:#83AF38;" d="M150.9,69.5
		c0.1-0.2,0.3-0.4,0.3-0.7c0-0.9-0.8-1.7-1.7-1.7l-49.3,41.8L50.5,67c-0.9,0-1.7,0.8-1.7,1.7c0,0.3,0.2,0.5,0.3,0.7
		c0.3-0.5,0.7-0.8,1.3-0.8c0.9,0,1.7,0.8,1.7,1.7v0.1l48,41.8l47.7-41.8v-0.1c0-0.9,0.8-1.7,1.7-1.7C150.1,68.6,150.6,69,150.9,69.5
		 M151.2,68.8c0-0.3-0.2,0.9-0.4,0.7c-0.3,0.5-0.7,1-1.4,1h-1.6v56.6c0,1.4-1.1,2.5-2.5,2.5H54.6c-1.4,0-2.5-1.1-2.5-2.5V70.5h-1.6
		c-0.7,0-1.1-0.4-1.4-1c-0.2,0.3-0.4-1-0.4-0.7v58.2c0,3.2,2.6,5.9,5.9,5.9h90.7c3.2,0,5.9-2.6,5.9-5.9V68.8z"/>
	
		<path style="clip-path:url(#SVGID_00000121985524099249633820000017872254627985542847_);fill:none;stroke:#83AF38;stroke-width:2.623;stroke-miterlimit:10;" d="
		M150.9,69.5c0.1-0.2,0.3-0.4,0.3-0.7c0-0.9-0.8-1.7-1.7-1.7l-49.3,41.8L50.5,67c-0.9,0-1.7,0.8-1.7,1.7c0,0.3,0.2,0.5,0.3,0.7
		c0.3-0.5,0.7-0.8,1.3-0.8c0.9,0,1.7,0.8,1.7,1.7v0.1l48,41.8l47.7-41.8v-0.1c0-0.9,0.8-1.7,1.7-1.7C150.1,68.6,150.6,69,150.9,69.5
		z M151.2,68.8c0-0.3-0.2,0.9-0.4,0.7c-0.3,0.5-0.7,1-1.4,1h-1.6v56.6c0,1.4-1.1,2.5-2.5,2.5H54.6c-1.4,0-2.5-1.1-2.5-2.5V70.5h-1.6
		c-0.7,0-1.1-0.4-1.4-1c-0.2,0.3-0.4-1-0.4-0.7v58.2c0,3.2,2.6,5.9,5.9,5.9h90.7c3.2,0,5.9-2.6,5.9-5.9V68.8z"/>
	<path style="clip-path:url(#SVGID_00000121985524099249633820000017872254627985542847_);fill:#83AF38;" d="M51.8,70.5h96.5
		c1.1,0,2-0.4,2-1.4c0-0.9-0.9-2-2-2H51.8c-1.1,0-2,0.8-2,1.7C49.8,69.7,50.7,70.5,51.8,70.5"/>
	
		<path style="clip-path:url(#SVGID_00000121985524099249633820000017872254627985542847_);fill:none;stroke:#83AF38;stroke-width:2.623;stroke-miterlimit:10;" d="
		M51.8,70.5h96.5c1.1,0,2-0.4,2-1.4c0-0.9-0.9-2-2-2H51.8c-1.1,0-2,0.8-2,1.7C49.8,69.7,50.7,70.5,51.8,70.5z"/>
	<path style="clip-path:url(#SVGID_00000121985524099249633820000017872254627985542847_);fill:#83AF38;" d="M145.9,129.2l-30.4-30
		c-0.4-0.4-0.2-1.2,0.4-1.8c0.6-0.6,1.4-0.8,1.8-0.4l30.4,30c0.4,0.4,0.2,1.2-0.4,1.8C147.1,129.4,146.3,129.6,145.9,129.2"/>
	
		<path style="clip-path:url(#SVGID_00000121985524099249633820000017872254627985542847_);fill:none;stroke:#83AF38;stroke-width:3.2787;stroke-miterlimit:10;" d="
		M145.9,129.2l-30.4-30c-0.4-0.4-0.2-1.2,0.4-1.8c0.6-0.6,1.4-0.8,1.8-0.4l30.4,30c0.4,0.4,0.2,1.2-0.4,1.8
		C147.1,129.4,146.3,129.6,145.9,129.2z"/>
	<path style="clip-path:url(#SVGID_00000121985524099249633820000017872254627985542847_);fill:#83AF38;" d="M54.1,129.5l30.4-30
		c0.4-0.4,0.2-1.2-0.4-1.8c-0.6-0.6-1.4-0.8-1.8-0.4l-30.4,30c-0.4,0.4-0.2,1.2,0.4,1.8C52.8,129.7,53.7,129.9,54.1,129.5"/>
	
		<path style="clip-path:url(#SVGID_00000121985524099249633820000017872254627985542847_);fill:none;stroke:#83AF38;stroke-width:3.2787;stroke-miterlimit:10;" d="
		M54.1,129.5l30.4-30c0.4-0.4,0.2-1.2-0.4-1.8c-0.6-0.6-1.4-0.8-1.8-0.4l-30.4,30c-0.4,0.4-0.2,1.2,0.4,1.8
		C52.8,129.7,53.7,129.9,54.1,129.5z"/>
</g>
</svg>
