<?xml version="1.0" encoding="utf-8"?>
<!-- Generator: Adobe Illustrator 28.0.0, SVG Export Plug-In . SVG Version: 6.00 Build 0)  -->
<svg version="1.1" id="Ebene_1" xmlns="http://www.w3.org/2000/svg" xmlns:xlink="http://www.w3.org/1999/xlink" x="0px" y="0px"
	 viewBox="0 0 200 200" style="enable-background:new 0 0 200 200;" xml:space="preserve">
<style type="text/css">
	.st0{clip-path:url(#SVGID_00000164476505130055548330000001001616851387975300_);fill:#FFFFFF;}
	.st1{clip-path:url(#SVGID_00000164476505130055548330000001001616851387975300_);fill:none;stroke:#83AF38;stroke-width:16.3934;}
	.st2{clip-path:url(#SVGID_00000164476505130055548330000001001616851387975300_);fill:#83AF38;}
	
		.st3{clip-path:url(#SVGID_00000164476505130055548330000001001616851387975300_);fill:none;stroke:#83AF38;stroke-width:3.2787;stroke-miterlimit:10;}
	
		.st4{clip-path:url(#SVGID_00000164476505130055548330000001001616851387975300_);fill:none;stroke:#83AF38;stroke-width:2.8702;stroke-miterlimit:10;}
</style>
<g>
	<defs>
		<rect id="SVGID_1_" y="0" width="200" height="200"/>
	</defs>
	<clipPath id="SVGID_00000016063419346795720660000010915682357460000436_">
		<use xlink:href="#SVGID_1_"  style="overflow:visible;"/>
	</clipPath>
	<path style="clip-path:url(#SVGID_00000016063419346795720660000010915682357460000436_);fill:#FFFFFF;" d="M100,191.8
		c50.7,0,91.8-41.1,91.8-91.8S150.7,8.2,100,8.2S8.2,49.3,8.2,100S49.3,191.8,100,191.8"/>
	
		<circle style="clip-path:url(#SVGID_00000016063419346795720660000010915682357460000436_);fill:none;stroke:#83AF38;stroke-width:16.3934;" cx="100" cy="100" r="91.8"/>
	<path style="clip-path:url(#SVGID_00000016063419346795720660000010915682357460000436_);fill:#83AF38;" d="M105.7,57.5H94.3
		c-0.6,0-1.1,0.5-1.1,1.1c0,0.6,0.5,1.1,1.1,1.1h11.5c0.6,0,1.1-0.5,1.1-1.1C106.9,58,106.4,57.5,105.7,57.5"/>
	
		<path style="clip-path:url(#SVGID_00000016063419346795720660000010915682357460000436_);fill:none;stroke:#83AF38;stroke-width:3.2787;stroke-miterlimit:10;" d="
		M105.7,57.5H94.3c-0.6,0-1.1,0.5-1.1,1.1c0,0.6,0.5,1.1,1.1,1.1h11.5c0.6,0,1.1-0.5,1.1-1.1C106.9,58,106.4,57.5,105.7,57.5z"/>
	<path style="clip-path:url(#SVGID_00000016063419346795720660000010915682357460000436_);fill:#83AF38;" d="M118.9,57.5h-1.1
		c-0.6,0-1.1,0.5-1.1,1.1c0,0.6,0.5,1.1,1.1,1.1h1.1c0.6,0,1.1-0.5,1.1-1.1C120,58,119.5,57.5,118.9,57.5"/>
	
		<path style="clip-path:url(#SVGID_00000016063419346795720660000010915682357460000436_);fill:none;stroke:#83AF38;stroke-width:3.2787;stroke-miterlimit:10;" d="
		M118.9,57.5h-1.1c-0.6,0-1.1,0.5-1.1,1.1c0,0.6,0.5,1.1,1.1,1.1h1.1c0.6,0,1.1-0.5,1.1-1.1C120,58,119.5,57.5,118.9,57.5z"/>
	<path style="clip-path:url(#SVGID_00000016063419346795720660000010915682357460000436_);fill:#83AF38;" d="M102.9,138.5
		c0,0.6-0.5,1.1-1.1,1.1h-3.6c-0.6,0-1.1-0.5-1.1-1.1v-0.7c0-0.6,0.5-1.1,1.1-1.1h3.6c0.6,0,1.1,0.5,1.1,1.1V138.5z M101.8,133.9
		h-3.6c-2.2,0-4,1.8-4,4v0.7c0,2.2,1.8,3.9,3.9,3.9h3.6c2.2,0,4-1.8,4-3.9v-0.7C105.7,135.7,104,133.9,101.8,133.9"/>
	
		<path style="clip-path:url(#SVGID_00000016063419346795720660000010915682357460000436_);fill:none;stroke:#83AF38;stroke-width:3.2787;stroke-miterlimit:10;" d="
		M102.9,138.5c0,0.6-0.5,1.1-1.1,1.1h-3.6c-0.6,0-1.1-0.5-1.1-1.1v-0.7c0-0.6,0.5-1.1,1.1-1.1h3.6c0.6,0,1.1,0.5,1.1,1.1V138.5z
		 M101.8,133.9h-3.6c-2.2,0-4,1.8-4,4v0.7c0,2.2,1.8,3.9,3.9,3.9h3.6c2.2,0,4-1.8,4-3.9v-0.7C105.7,135.7,104,133.9,101.8,133.9z"/>
	<path style="clip-path:url(#SVGID_00000016063419346795720660000010915682357460000436_);fill:#83AF38;" d="M123.9,142
		c0,1.4-1.2,2.6-2.6,2.6H78.7c-1.4,0-2.6-1.2-2.6-2.6V58c0-1.4,1.2-2.6,2.6-2.6h42.6c1.4,0,2.6,1.2,2.6,2.6V142z M121.3,52.3H78.7
		c-3.2,0-5.8,2.6-5.8,5.8v84c0,3.2,2.6,5.8,5.8,5.8h42.6c3.2,0,5.8-2.6,5.8-5.7V58C127.1,54.8,124.5,52.3,121.3,52.3"/>
	
		<path style="clip-path:url(#SVGID_00000016063419346795720660000010915682357460000436_);fill:none;stroke:#83AF38;stroke-width:2.8702;stroke-miterlimit:10;" d="
		M123.9,142c0,1.4-1.2,2.6-2.6,2.6H78.7c-1.4,0-2.6-1.2-2.6-2.6V58c0-1.4,1.2-2.6,2.6-2.6h42.6c1.4,0,2.6,1.2,2.6,2.6V142z
		 M121.3,52.3H78.7c-3.2,0-5.8,2.6-5.8,5.8v84c0,3.2,2.6,5.8,5.8,5.8h42.6c3.2,0,5.8-2.6,5.8-5.7V58
		C127.1,54.8,124.5,52.3,121.3,52.3z"/>
	<path style="clip-path:url(#SVGID_00000016063419346795720660000010915682357460000436_);fill:#83AF38;" d="M123.9,128.6H76.1V65
		h47.7V128.6z M125.5,61.8H74.5c-0.9,0-1.6,0.7-1.6,1.6v66.8c0,0.9,0.7,1.6,1.6,1.6h50.9c0.9,0,1.6-0.7,1.6-1.6V63.4
		C127.1,62.5,126.3,61.8,125.5,61.8"/>
	
		<path style="clip-path:url(#SVGID_00000016063419346795720660000010915682357460000436_);fill:none;stroke:#83AF38;stroke-width:2.8702;stroke-miterlimit:10;" d="
		M123.9,128.6H76.1V65h47.7V128.6z M125.5,61.8H74.5c-0.9,0-1.6,0.7-1.6,1.6v66.8c0,0.9,0.7,1.6,1.6,1.6h50.9c0.9,0,1.6-0.7,1.6-1.6
		V63.4C127.1,62.5,126.3,61.8,125.5,61.8z"/>
</g>
</svg>
