<?xml version="1.0" encoding="utf-8"?>
<!-- Generator: Adobe Illustrator 28.0.0, SVG Export Plug-In . SVG Version: 6.00 Build 0)  -->
<svg version="1.1" id="Ebene_1" xmlns="http://www.w3.org/2000/svg" xmlns:xlink="http://www.w3.org/1999/xlink" x="0px" y="0px"
	 viewBox="0 0 200 200" style="enable-background:new 0 0 200 200;" xml:space="preserve">
<style type="text/css">
	.st0{clip-path:url(#SVGID_00000039818733292565289680000006703440072247272120_);fill:#FFFFFF;}
	.st1{clip-path:url(#SVGID_00000039818733292565289680000006703440072247272120_);fill:none;stroke:#83AF38;stroke-width:16.3934;}
	.st2{clip-path:url(#SVGID_00000039818733292565289680000006703440072247272120_);fill:none;stroke:#83AF38;stroke-width:6.0978;}
</style>
<g>
	<defs>
		<rect id="SVGID_1_" width="200" height="200"/>
	</defs>
	<clipPath id="SVGID_00000155135520836356635740000018065931603484477093_">
		<use xlink:href="#SVGID_1_"  style="overflow:visible;"/>
	</clipPath>
	<path style="clip-path:url(#SVGID_00000155135520836356635740000018065931603484477093_);fill:#FFFFFF;" d="M100,191.8
		c50.7,0,91.8-41.1,91.8-91.8S150.7,8.2,100,8.2S8.2,49.3,8.2,100S49.3,191.8,100,191.8"/>
	
		<circle style="clip-path:url(#SVGID_00000155135520836356635740000018065931603484477093_);fill:none;stroke:#83AF38;stroke-width:16.3934;" cx="100" cy="100" r="91.8"/>
	
		<path style="clip-path:url(#SVGID_00000155135520836356635740000018065931603484477093_);fill:none;stroke:#83AF38;stroke-width:6.0978;" d="
		M100,93.5c9.3,0,16.8-7.5,16.8-16.8c0-9.3-7.5-16.8-16.8-16.8s-16.8,7.5-16.8,16.8C83.2,86,90.7,93.5,100,93.5z"/>
	
		<path style="clip-path:url(#SVGID_00000155135520836356635740000018065931603484477093_);fill:none;stroke:#83AF38;stroke-width:6.0978;" d="
		M100,150.4c0,0,30.5-56.9,30.5-73.7S116.8,46.2,100,46.2S69.5,59.9,69.5,76.7S100,150.4,100,150.4z"/>
</g>
</svg>
