<?xml version="1.0" encoding="utf-8"?>
<!-- Generator: Adobe Illustrator 28.0.0, SVG Export Plug-In . SVG Version: 6.00 Build 0)  -->
<svg version="1.1" id="Ebene_1" xmlns="http://www.w3.org/2000/svg" xmlns:xlink="http://www.w3.org/1999/xlink" x="0px" y="0px"
	 viewBox="0 0 514.6 3392.9" style="enable-background:new 0 0 514.6 3392.9;" xml:space="preserve">
<style type="text/css">
	.st0{clip-path:url(#SVGID_00000128445968991194731870000005312474195902097032_);fill:#83AF38;}
</style>
<g>
	<defs>
		<rect id="SVGID_1_" width="514.6" height="3392.9"/>
	</defs>
	<clipPath id="SVGID_00000006699845729663845010000001344540317104291246_">
		<use xlink:href="#SVGID_1_"  style="overflow:visible;"/>
	</clipPath>
	<path style="clip-path:url(#SVGID_00000006699845729663845010000001344540317104291246_);fill:#83AF38;" d="M243.9,351.6
		c-3.1-12.7-6-24.6-1.9-43.6c2.5-11.3,5-11.5,5.1-11.5c0,0,0,0,0,0c2.2,0,7.8,8,13.6,29.6c4.5,16.7,1.5,30.2-2,45.8
		c-1.1,4.7-2.2,9.5-3.1,14.7c-1,5.6-2.6,11.1-4.4,16c0.9-3.8,1.7-7.6,2.3-11.4c1-6.4,1.4-12.9,1.5-19.4c0-6.5-0.4-13-1.3-19.4
		c-0.9-6.4-2.3-12.8-4.3-18.9c0.6,6.4,1.3,12.8,1.7,19.2c0.4,6.4,0.6,12.8,0.6,19.1c0,6.4-0.3,12.7-0.7,19.1
		c-0.3,3.8-0.6,7.5-1,11.3c0.2-6.9-0.5-13.5-1.3-21.1c-0.3-2.9-0.6-5.9-0.9-9.2C247,364.5,245.4,358,243.9,351.6 M365.1,402.3
		c28.4,5.6,41.2,17.8,52.5,28.6c3.3,3.2,6.5,6.2,9.8,8.8c8.1,6.4,7.7,8.6,7.7,8.6c0,0-1.6,2.6-17.6,0.3c-22.6-3.2-30-5.1-51.2-16.5
		c-8.6-4.6-16.4-9.9-23.9-15.1c-7.7-5.3-15.1-10.3-22.3-13.8c10,2.7,20,5,29.8,7.9c12.9,3.7,25.5,8.2,37.7,14.2
		c-5.4-4.1-11.3-7.6-17.5-10.4c-6.2-2.9-12.7-5.1-19.2-7.1c-10.8-3.1-21.8-5.2-32.9-6.5C326.4,399.5,342.2,397.8,365.1,402.3
		 M243.7,687.9c-0.9-29.4,3.9-45.2,9-62l0.6-2c3.7-12.3,6.3-12.3,6.3-12.3c0.1,0,2.7,0.2,6.6,12.6c6.2,19.5,5.5,35.3-2.9,64.9l-2,7
		c-4.9,17.3-8.7,30.6-9.6,45.1c-0.1-0.5-0.2-1.1-0.4-1.7c-0.7-14.2-0.6-28.3,0.7-42.3c1.4-16.5,4.5-32.9,8.5-49.1
		c-6.6,15.4-10.4,32.1-11.9,48.8c-0.8,9.6-0.9,19.4-0.1,29C246.2,713.5,244.1,699.7,243.7,687.9 M226.9,792.9
		c-7.3-2.9-14.2-5.6-20.1-9.8c-13.9-10.1-16.6-15.8-16.1-17.6c0.3-1,2.5-2.1,7.7-2.2c0.8,0,1.5,0,2.2,0c14.1,0,23,2.1,38.6,16.6
		c7,6.4,13.7,17.1,19,27c-0.1-0.1-0.1-0.2-0.2-0.3c-2.7-3.6-5.8-7-9.1-10.1c-3.3-3.1-6.9-5.9-10.7-8.4c-3.8-2.5-7.8-4.7-12-6.3
		c3.5,2.8,7,5.6,10.4,8.4c3.4,2.8,6.7,5.7,9.9,8.8c3.2,3,6.3,6.1,9.4,9.3c0.1,0.1,0.2,0.3,0.4,0.4
		C246.7,800.6,236.4,796.6,226.9,792.9 M107.6,542.4c-2,0-4,0-6,0.1c-8.6,0.2-14.7,1.2-20.1,2c-9.1,1.5-15.6,2.5-27.9-1.5
		c-11.9-3.8-12.6-6.5-12.6-7c0-0.6,0.5-2.8,9.4-7c11.1-5.2,13.7-5.3,25.9-5.5c1.5,0,3.2-0.1,5.1-0.1c19.3-0.5,35.2,4.1,51.6,14.7
		c4.5,2.9,8.5,6.1,11.9,9.3c-2.5-1.6-5.2-3.2-7.8-4.6c-5.9-3.2-12.1-6.1-18.6-8.2c-3.3-1-6.6-1.8-10-2.3c-3.4-0.4-6.8-0.7-10.2-0.6
		c-6.8,0-13.5,1-20.1,2.1c6.7,0.2,13.4,0.1,20,0.5c6.6,0.4,13,1.5,19.3,3.5c6.3,1.9,12.3,4.6,18.4,7.3c4.5,2,9,4,13.3,6.4
		c0.3,0.3,0.6,0.6,0.9,0.9C135.9,544,122.2,542.4,107.6,542.4 M148.3,465.4c-0.5-29.5,6.4-46.4,14-62.6c1.1-2.4,4-8.4,5.5-9.8
		c1.6,2.2,3.9,12,4.7,15.4c4.8,20.5,1.3,33.6-4.5,55.1l-0.9,3.5c-4,15.1-9.9,27.3-13.6,35c0.7-3.7,1.3-7.4,1.8-11
		c0.9-5.8,1.7-11.7,2.5-17.5c0.7-5.8,1.5-11.7,2-17.6c0.6-5.9,1.2-11.7,1.4-17.7c-1.7,5.7-3,11.5-4.1,17.3c-1.1,5.8-2,11.7-2.8,17.5
		c-0.7,5.9-1.3,11.7-1.7,17.7c-0.3,4.4-0.5,8.9-0.5,13.3C150.6,496.8,148.5,483.7,148.3,465.4 M93,392.1c-4.8-4.5-9.8-9.2-14.9-14.4
		c-3-3.2-5.8-6-8.3-8.6c-15.1-15.4-21.3-21.8-28.3-41.2c-3.7-10.2-2-11.9-1.8-12.1c0.2-0.2,0.6-0.3,1.2-0.3c2.2,0,7.9,1.9,22.2,11.8
		c19.5,13.6,33.7,31.4,47.3,59.4c6.5,13.4,10.4,27.1,12.7,37.8c-5.1-12.1-11.5-23.7-18.8-34.6c-9.2-13.7-19.7-26.6-31.9-37.8
		c10.2,13,20.1,26,29.1,39.7c6.7,10.1,13,20.4,19,31C112.6,410.4,103.3,401.7,93,392.1 M120.7,269.1c5.9-24.5,11.5-32,17.9-40.7
		c1-1.4,2.1-2.8,3.1-4.3c3.8-5.4,5.5-5.6,5.7-5.6c0,0,0,0,0,0c0.1,0,1.9,0.6,3.2,11.3c1.7,13.7-3.9,27.6-13.9,50.8
		c-2.4,5.6-4.7,10.4-6.6,14.6c-3.7,7.9-6.7,14.3-8.9,22.1c0.3-2.6,0.7-5.2,1.1-7.8c1-6.3,2.2-12.6,3.7-18.8
		c1.4-6.2,3.2-12.3,5.1-18.4c1.9-6.1,4.1-12.1,6.3-18.2c-3.5,5.5-6.4,11.3-8.8,17.3c-2.4,6-4.4,12.2-5.9,18.6
		c-1.4,6.3-2.5,12.8-3,19.2c-0.2,2.4-0.3,4.8-0.3,7.1C117.8,302.8,117,284.4,120.7,269.1 M59.5,236.3
		c-20.6-19.5-33.7-34.2-43.9-56.2c-11.7-25.5-12.2-32.5-10.5-34c0,0,0.3-0.2,1-0.2c1.4,0,4.6,0.8,11.4,5.3
		c18.2,12.2,23.5,24.1,30.1,39.3c2.9,6.6,6.1,14,10.8,22.2c6.9,12,11.9,23.5,16.4,33.6c1.6,3.6,3.1,7.1,4.7,10.4
		c-0.4-0.4-0.8-0.9-1.2-1.3c-5.9-9.5-12.2-18.8-18.6-27.9c-8.1-11.3-16.4-22.4-25.6-32.9c7,12.1,14.8,23.5,22.8,34.9
		c3.8,5.2,7.6,10.4,11.5,15.5C65.6,242.2,62.7,239.3,59.5,236.3 M240.8,163.1c15.5-30.2,32.9-49.1,53.2-57.9
		c4.1-1.8,7.5-2.7,9.9-2.7c1.4,0,2.5,0.3,3.1,1c0.9,1,3.2,5.5-5.4,23c-6.4,13-15,19.2-24.9,26.4c-8,5.8-17.1,12.3-25.9,23.5
		c-12.8,16.2-19.7,28.2-25.8,42.3c3.7-11.4,8-22.6,13.6-33.1c7.7-14.6,17.8-27.9,30.5-38.9c-7.1,4.4-13.6,10-19.1,16.4
		c-5.6,6.4-10.3,13.4-14.3,20.9c-4.8,9.2-8.5,19-11.1,29C227.5,197.8,232.5,179.3,240.8,163.1 M175.8,167.6
		c-3.3-2.7-6.8-5.6-10.7-8.8c-22.6-19-36.8-34-42.7-53.9c-2.6-9.1-1.2-10.3-1.2-10.4c0.2-0.1,0.4-0.2,0.7-0.2
		c2.6,0,10.2,4.8,22.6,14.2c20.5,15.7,32,31.8,48.5,59.9c7.1,12,10.9,21.7,13.1,28.7c-5.1-10.9-11.5-21.2-18.8-30.7
		c-8.8-11.3-18.9-21.8-30.5-30.3c9.7,10.5,19.1,21.1,27.8,32.4c5.2,6.7,10.2,13.7,15,20.8C192.7,181.3,185.2,175.2,175.8,167.6
		 M203.8,110.9c-15.4-27.9-31.3-56.8-30.4-85.4c0.6-19.6,4.3-20.9,4.7-21c0.1,0,0.1,0,0.2,0c1.9,0,7.2,4.3,14.9,21l0.3,0.7
		c9.9,21.4,11.7,25.2,16.7,52.9c2.6,14.4,3.2,29.3,3.1,40.3c-1.1-8.8-2.9-17.5-5.3-26.1C204.2,80,199.1,67,192,55
		c4.6,13.1,9.1,26,12.8,39.2c3.2,11.1,5.8,22.4,8.3,33.7C210.1,122.3,206.9,116.5,203.8,110.9 M314.6,299.7c-1-4-2.1-8.1-3.1-12.5
		c-1.6-7.1-3.4-12.4-4.9-17.1c-3.8-11.4-6-18.2-0.6-37.4c3.4-12.2,5.5-15.8,6.4-16.9c1.1,1.7,2.5,6.9,3.1,8.9
		c1.4,5.2,2.7,8.4,4.1,12.1c2,5.1,4.2,10.8,7.7,23.6c6.7,25,7.3,43.5,1.9,59.9c-2.3,6.9-5.7,13.4-9,18.8c1.3-3.7,2.4-7.6,3.2-11.5
		c1.3-6.4,2-12.9,2-19.4c0-6.5-0.6-13.1-2-19.4c-1.3-6.4-3.3-12.6-6.1-18.5c1.4,6.3,2.7,12.6,3.5,18.9c0.8,6.3,1.2,12.7,1.2,19
		c0,6.3-0.4,12.7-1.2,19c-0.6,5-1.5,10-2.6,15c-0.1,0.1-0.2,0.3-0.3,0.4C321.7,326.6,318.5,314.4,314.6,299.7 M374.7,336.1
		c30.5,1.8,41.2,12,51.6,21.8l2.1,1.9c8.7,8.1,8.8,11.1,8.4,12c-0.3,0.6-1.8,2.7-11.8,2.7h0c-15.5,0-21.1-3-32.2-8.9
		c-2.6-1.4-5.4-2.9-8.7-4.5l-2.8-1.4c-11.2-5.7-25-12.7-39-15.2c9.9-0.2,19.8,0.4,29.6,2.1c15.5,2.6,30.6,7.6,44.9,14.7
		c-13-9.4-28.5-15.4-44.4-18.1c-12.7-2.1-25.9-2.1-38.5,0.4c-0.6,0-1.1-0.1-1.7-0.1C341.7,339.5,356.6,335.1,374.7,336.1
		 M364.6,255.8c10.7-31.1,17.1-38.1,31.1-53.3l0.4-0.4c7.7-8.4,10.3-9.2,11-9.2c0.1,0,0.2,0,0.2,0c0.3,0.1,2.7,1.9-0.1,22.7
		c-3.9,28.5-12.6,40.8-27.1,61.1l-1.3,1.8c-10,14.1-17.1,20.5-23.1,25.6c1.5-2,2.9-4.1,4.2-6.1c3.5-5.4,6.6-11,9.4-16.7
		c2.8-5.8,5.3-11.7,7.3-17.7c2.1-6,3.8-12.2,5-18.5l-7.4,17.5c-2.5,5.8-5.1,11.5-7.9,17.2c-2.7,5.7-5.7,11.3-8.6,16.8l-6,10.8
		c0,0,0,0,0,0C353,297.9,356.9,278.1,364.6,255.8 M299,370c7.1-6.7,14.1-13.3,20.8-20.1c0.1,0,0.2,0,0.2,0
		c19.1-6.4,42.2,5.3,59,13.9l2.8,1.4c3.2,1.6,6,3.1,8.6,4.5c11,5.9,17.7,9.5,34.4,9.5h0c9.4,0,14.5-1.8,16.1-5.6
		c1.6-4.1-1.3-9.3-9.6-17l-2-1.9c-11-10.4-22.3-21.1-54.4-23c-19.7-1.2-35.4,3.7-45.3,8c6.9-7.6,13.5-15.5,19.5-24.3
		c0.2-0.1,0.5-0.2,0.7-0.4c2-1.9,4-3.5,6.2-5.3c6.5-5.3,14.6-12,26.4-28.4l1.3-1.8c14.9-20.9,23.9-33.5,27.9-63.1
		c2.5-18,1.8-25.4-2.4-27.4c-3.6-1.7-8.1,1.1-16.5,10.2l-0.4,0.4c-14,15.3-21,22.9-32,54.9c-9.6,27.7-13.3,51.6-14.1,57.3
		c-5.7,8.3-11.8,16-18.3,23.2c2.1-4,4.1-8.4,5.6-12.9c5.7-17.3,5.1-36.6-1.8-62.5c-3.5-13-5.8-18.9-7.8-24.1
		c-1.4-3.6-2.6-6.7-4-11.6c-2.1-7.8-3.7-12.6-7.4-12.6c-3.2-0.1-6,3.3-10.8,20.5c-5.8,20.5-3.2,28.3,0.7,40
		c1.5,4.6,3.2,9.8,4.8,16.7c1,4.5,2.1,8.7,3.2,12.7c4.8,18.2,8.2,31.4-1.1,53.2c-4.3,4.2-8.7,8.4-13.2,12.6
		c-14.1,13.3-28.5,26.9-42.6,43.6c2.7-6.6,5.3-14.4,6.8-22.7c0.9-5.1,2-9.9,3.1-14.5c3.7-16.2,6.8-30.3,2-48
		c-6-22-12-33.1-18.2-32.9c-4.2,0.1-7.2,4.9-9.4,15c-4.4,20-1.2,33,1.9,45.6c1.5,6.2,3.1,12.6,3.7,19.7c0.3,3.3,0.6,6.3,0.9,9.2
		c1.8,16.6,3,27.5-4.8,46.3c0,0,0,0,0,0.1c-23.2,32.2-32.8,74-36.7,99.4c-1-12.1-1.9-24-2.8-35.7c-0.8-10.4-1.5-20.6-2.3-30.6
		c-4.8-59.1,1-88.9,9.7-134.1c3-15.7,6.5-33.4,9.9-54.7c1.1-6.7,1.9-13.1,2.7-19.5c0.1-0.2,0.1-0.4,0.2-0.6c0-0.1,0.1-0.9,0.2-2.2
		c0.3-2.9,0.6-5.8,0.9-8.7c9.2-24.7,15.2-39.2,33.4-62.2c8.5-10.7,16.9-16.7,25-22.6c10-7.2,19.4-14,26.3-28.1
		c7.2-14.6,8.7-23.9,4.6-28.2c-3.3-3.4-9.2-3.2-18.1,0.7c-21.3,9.2-39.4,28.9-55.5,60c-6.4,12.4-10.9,26.2-14,38.8
		c-0.1-32.8-4-55.5-5.5-63.1c0.2-2.9,2.4-31.4-2.5-58.3c-5.1-28.3-7.2-32.7-17.1-54l-0.3-0.7C189.6,6.9,182.8-1,177.2,0.1
		c-5.3,1.1-7.8,8.9-8.3,25.3c-0.9,29.8,15.3,59.3,31,87.7c4.4,8,9,16.3,12.9,24.3c1.8,8.8,7.3,40.8,4.9,86.6
		c-1-4.4-2.4-9.1-4.3-13.9c-0.1-2.2-1-17.8-16.3-44c-16.4-28-28.6-45.1-49.6-61.2c-15.8-12.1-24.1-17.3-28.6-14.2
		c-3,2-3.1,6.6-0.6,15.4c6.2,21,20.8,36.5,44.1,56.1c3.9,3.3,7.4,6.2,10.7,8.8c15.8,12.9,25.3,20.7,35.9,40.1c0,0.1,0,0.1,0,0.2
		c6.9,16.8,6.9,33,6.6,38.4c-0.8,7-1.7,14.2-2.9,21.7c-3.4,21.2-6.8,39-9.8,54.6c-8.8,45.5-14.6,75.6-9.8,135.3
		c0.8,10,1.6,20.2,2.3,30.6c4.4,58.6,9.2,123.7,27.3,186.7c-13.1-23.9-35.3-65.3-52.1-101.5c-1.9-4.1-3.7-8.2-5.5-12.2
		c0-0.2-0.1-0.4-0.2-0.6c0,0-0.1-0.2-0.2-0.3c-2.9-6.6-5.6-13.3-8.1-19.9c0,0,0,0,0,0c0-0.2-3.4-14.8-2.8-32c0-0.1,0.1-0.1,0.1-0.2
		c0.2-1,1.6-3.7,3.1-6.8c3.8-7.7,10.2-20.7,14.5-37l0.9-3.5c5.8-21.5,9.6-35.7,4.5-57.3c-3.2-13.8-5-18.7-8.7-19.1
		c-3.5-0.4-5.9,3.8-10.1,12.6c-7.6,16-14.9,34.1-14.5,64.6c0.4,26.9,4.5,42.4,5.5,46c-0.2,4.5-0.1,8.8,0.1,12.7
		c-8.9-26.4-15.1-52.8-18.8-78.9c0-0.1,0-0.2,0-0.3c0-0.5-0.4-5.8-1.8-13.9c-0.2-2-0.4-4.1-0.6-6.1c-0.9-10.3-1-20.5-1.2-31.4
		c-0.3-18.5-0.5-37.4-4.6-57c0,0,0,0,0,0c1.6-17.8,5.7-26.3,11.8-39.3c2-4.2,4.3-9,6.7-14.8c10.3-24,16-38.3,14.2-53.2
		c-1.2-9.9-3.1-14.3-6.6-15.1c-4-1-7.7,3.4-10.5,7.4c-1,1.5-2.1,2.8-3.1,4.2c-6.7,9.1-12.5,16.9-18.7,42.3
		c-3.2,13.2-3.2,28.3-2.2,41c-4.4-10.6-10.2-21.4-18.2-32.6c-0.1-0.3-0.2-0.5-0.4-0.8c0,0-0.1-0.1-0.3-0.4
		c-6.2-8.2-10.8-18.7-16.2-30.8c-4.5-10.2-9.6-21.8-16.6-34c-4.6-8-7.6-15-10.6-21.8c-7-15.8-12.4-28.3-31.8-41.3
		c-9.1-6.1-14.6-7.6-17.9-4.8c-5.3,4.5-0.6,17.8,9.3,39.3c10.5,22.7,23.8,37.8,44.9,57.6c17,16,29.1,30.7,33.6,36.3
		c0,0.1,0,0.1,0.1,0.2c31.4,42.5,32,80.6,32.5,117.4c0.1,4.2,0.1,8.2,0.2,12.3c-2.2-6.8-4.9-13.9-8.4-21.1
		c-14-28.8-28.6-47.1-48.8-61.2c-16.5-11.4-24.5-14.6-28.7-11.4c-3.2,2.5-3.1,7.8,0.3,17.2c7.4,20.3,14.3,27.3,29.3,42.8
		c2.5,2.6,5.3,5.4,8.3,8.5c5.2,5.4,10.2,10.1,15.1,14.6c14.8,13.8,27.6,25.8,36.1,49.8c4.8,34.7,14.1,69.7,28,104.8
		c-4.7-5.1-10.8-10.7-18.5-15.7c-17.3-11.1-34-15.9-54.2-15.5c-1.9,0-3.5,0.1-5.1,0.1c-12.4,0.2-15.7,0.3-27.7,5.9
		c-6.1,2.9-12.3,6.5-12,11.4c0.3,4.2,5.1,7.6,15.8,11.1c13.4,4.3,20.7,3.1,30,1.6c5.3-0.8,11.2-1.8,19.5-2
		c21.4-0.5,39.3,0.7,59.2,19.8c1.8,4.1,3.6,8.2,5.5,12.4c24.2,52.1,59.6,115.1,63,121.1c2.1,6.3,4.4,12.6,6.9,18.8
		c12.9,32.7,23.3,63.2,29.9,93c-5.9-11.9-14.4-27-23.8-35.7c-16.8-15.6-26.8-18-44-17.7c-2.5,0-10.3,0.1-11.9,5.4
		c-1.7,5.2,4.3,12.9,17.7,22.6c6.3,4.6,13.5,7.4,21.1,10.4c15.5,6.1,31.4,12.4,44.6,34.4c0,0,0.1,0.1,0.1,0.1
		c7.6,46,5.4,91-11.3,140.4c-0.4,1.2,0.2,2.5,1.4,2.9c0.2,0.1,0.5,0.1,0.7,0.1c0.9,0,1.8-0.6,2.2-1.5c25-74.3,18-138.5-5.9-210.6
		c-3.2-23.9,1.5-40.5,8.7-65.5l2-7c8.6-30.6,9.3-47,2.8-67.5c-3.5-10.9-6.8-15.8-11-15.8h0c-4.1,0-7.4,4.8-10.6,15.6l-0.6,2
		c-5,16.4-10.1,33.3-9.2,63.5c0.4,11.9,2.4,25.8,4.9,38.4c-1.2-3-2.3-6-3.5-9.1c-2.4-6-4.5-11.9-6.6-18c0-0.3-0.1-0.6-0.3-0.9
		c0,0,0-0.1-0.1-0.1c-16.6-48.9-24.2-99.8-28.9-148.5c0.1-1.5,3.8-69.5,37-117.4c0.2-0.1,0.3-0.3,0.4-0.5
		c0.2-0.4,23.7-35.1,66.3-28.4c0.1,0,0.1,0.1,0.2,0.1c9.7,2.3,19.7,9.1,31.2,16.9c7.6,5.2,15.6,10.6,24.3,15.4
		c21.9,11.7,29.5,13.7,52.7,17c4.6,0.7,8.4,1,11.6,1c6.2,0,9.7-1.3,10.8-4c1.5-3.5-1.3-7.8-9.1-14c-3.2-2.5-6.2-5.4-9.5-8.5
		c-11.1-10.7-25-24-54.7-29.8c-34.3-6.7-53.2-0.2-57.1,1.4c-20.7-3.2-37.1,2.7-48.9,10.2C273,394.6,286.2,382.1,299,370"/>
	<path style="clip-path:url(#SVGID_00000006699845729663845010000001344540317104291246_);fill:#83AF38;" d="M293.3,1962.5
		c-3.1-12.7-6-24.6-1.9-43.6c2.5-11.3,5-11.5,5.1-11.5c0,0,0,0,0,0c2.2,0,7.8,8,13.6,29.6c4.5,16.7,1.5,30.2-2,45.8
		c-1.1,4.7-2.2,9.5-3.1,14.7c-1,5.6-2.6,11.1-4.4,16c0.9-3.8,1.7-7.6,2.3-11.4c1-6.4,1.4-12.9,1.5-19.4c0-6.5-0.4-13-1.3-19.4
		c-0.9-6.4-2.3-12.8-4.3-18.9c0.6,6.4,1.3,12.8,1.7,19.2c0.4,6.4,0.6,12.8,0.6,19.1c0,6.4-0.3,12.7-0.7,19.1
		c-0.3,3.8-0.6,7.5-1,11.3c0.2-6.9-0.5-13.5-1.3-21.1c-0.3-2.9-0.6-5.9-0.9-9.2C296.5,1975.4,294.9,1968.8,293.3,1962.5
		 M414.5,2013.1c28.4,5.6,41.2,17.8,52.5,28.6c3.3,3.2,6.5,6.2,9.8,8.8c8.1,6.4,7.7,8.6,7.7,8.6c0,0-1.6,2.6-17.6,0.3
		c-22.6-3.2-30-5.1-51.2-16.5c-8.6-4.6-16.4-9.9-23.9-15.1c-7.7-5.3-15.1-10.3-22.3-13.8c10,2.7,20,5,29.8,7.9
		c12.9,3.7,25.5,8.2,37.7,14.2c-5.4-4.1-11.3-7.6-17.5-10.4c-6.2-2.9-12.7-5.1-19.2-7.1c-10.8-3.1-21.8-5.2-32.9-6.5
		C375.9,2010.4,391.7,2008.7,414.5,2013.1 M293.2,2298.8c-0.9-29.4,3.9-45.2,9-62l0.6-2c3.7-12.3,6.3-12.3,6.3-12.3
		c0.1,0,2.7,0.2,6.6,12.6c6.2,19.5,5.5,35.3-2.9,64.9l-2,7c-4.9,17.3-8.7,30.6-9.6,45.1c-0.1-0.5-0.2-1.1-0.4-1.7
		c-0.7-14.2-0.6-28.3,0.7-42.3c1.4-16.5,4.5-32.9,8.5-49.1c-6.6,15.4-10.4,32.1-11.9,48.8c-0.8,9.6-0.9,19.4-0.1,29
		C295.6,2324.3,293.5,2310.5,293.2,2298.8 M276.3,2403.7c-7.3-2.9-14.2-5.6-20.1-9.8c-13.9-10.1-16.6-15.8-16.1-17.6
		c0.3-1,2.5-2.1,7.7-2.2c0.8,0,1.5,0,2.2,0c14.1,0,23,2.1,38.6,16.6c7,6.4,13.7,17.1,19,27c-0.1-0.1-0.1-0.2-0.2-0.2
		c-2.7-3.6-5.8-7-9.1-10.1c-3.3-3.1-6.9-5.9-10.7-8.4c-3.8-2.5-7.8-4.7-12-6.3c3.5,2.8,7,5.6,10.5,8.4c3.4,2.8,6.7,5.7,9.9,8.8
		c3.2,3,6.3,6.1,9.4,9.3c0.1,0.1,0.2,0.3,0.4,0.4C296.1,2411.5,285.8,2407.4,276.3,2403.7 M157,2153.3c-2,0-4,0-6,0.1
		c-8.6,0.2-14.7,1.2-20.1,2c-9.1,1.5-15.6,2.5-27.9-1.5c-11.9-3.8-12.6-6.5-12.6-7c0-0.6,0.5-2.8,9.4-7c11.1-5.2,13.7-5.3,25.9-5.5
		c1.5,0,3.2-0.1,5.1-0.1c19.3-0.5,35.2,4.1,51.6,14.7c4.5,2.9,8.5,6.1,11.9,9.3c-2.5-1.6-5.2-3.2-7.8-4.6
		c-5.9-3.2-12.1-6.1-18.6-8.2c-3.3-1-6.6-1.8-10-2.3c-3.4-0.4-6.8-0.7-10.2-0.6c-6.8,0-13.5,1-20.1,2.1c6.7,0.2,13.4,0.1,20,0.5
		c6.6,0.4,13,1.5,19.3,3.5c6.3,1.9,12.3,4.6,18.4,7.3c4.5,2,9,4,13.3,6.4c0.3,0.3,0.6,0.6,0.9,0.9
		C185.4,2154.8,171.6,2153.3,157,2153.3 M197.7,2076.3c-0.5-29.5,6.4-46.4,14-62.6c1.1-2.4,4-8.4,5.5-9.8c1.6,2.2,3.9,12,4.7,15.4
		c4.8,20.5,1.3,33.6-4.5,55.1l-0.9,3.5c-4,15.1-9.9,27.3-13.6,35c0.7-3.7,1.3-7.4,1.8-11c0.9-5.8,1.7-11.7,2.5-17.5
		c0.7-5.8,1.5-11.7,2-17.6c0.6-5.9,1.2-11.7,1.4-17.7c-1.7,5.7-3,11.5-4.1,17.3c-1.1,5.8-2,11.7-2.8,17.5
		c-0.7,5.9-1.3,11.7-1.7,17.7c-0.3,4.4-0.5,8.9-0.5,13.3C200.1,2107.6,198,2094.6,197.7,2076.3 M142.4,2002.9
		c-4.8-4.5-9.8-9.2-14.9-14.4c-3-3.2-5.8-6-8.3-8.6c-15.1-15.4-21.3-21.8-28.3-41.2c-3.7-10.2-2-11.9-1.8-12.1
		c0.2-0.2,0.6-0.3,1.2-0.3c2.2,0,7.9,1.9,22.2,11.8c19.5,13.6,33.7,31.4,47.3,59.4c6.5,13.4,10.4,27.1,12.7,37.8
		c-5.1-12.1-11.5-23.7-18.8-34.6c-9.2-13.7-19.7-26.7-31.9-37.8c10.2,13,20.1,26,29.1,39.7c6.7,10.1,13,20.4,19,31
		C162.1,2021.3,152.7,2012.6,142.4,2002.9 M170.1,1880c5.9-24.5,11.5-32,17.9-40.7c1-1.4,2.1-2.8,3.1-4.3c3.8-5.4,5.5-5.6,5.7-5.6
		c0,0,0,0,0,0c0.1,0,1.9,0.6,3.2,11.3c1.7,13.7-3.9,27.6-13.9,50.8c-2.4,5.6-4.7,10.4-6.6,14.6c-3.7,7.9-6.7,14.3-8.9,22.1
		c0.3-2.6,0.7-5.2,1.1-7.8c1-6.3,2.2-12.6,3.7-18.8c1.4-6.2,3.2-12.3,5.1-18.4c1.9-6.1,4.1-12.1,6.3-18.2
		c-3.5,5.5-6.4,11.3-8.8,17.3c-2.4,6-4.4,12.2-5.9,18.6c-1.4,6.3-2.5,12.8-3,19.2c-0.2,2.4-0.3,4.8-0.3,7.1
		C167.3,1913.6,166.4,1895.3,170.1,1880 M109,1847.2c-20.6-19.5-33.7-34.2-43.9-56.2c-11.7-25.5-12.2-32.5-10.5-34
		c0,0,0.3-0.2,1-0.2c1.4,0,4.6,0.8,11.4,5.3c18.2,12.2,23.5,24.1,30.1,39.3c2.9,6.6,6.1,14,10.8,22.2c6.9,12,11.9,23.5,16.4,33.6
		c1.6,3.6,3.1,7.1,4.7,10.4c-0.4-0.4-0.8-0.9-1.2-1.3c-5.9-9.5-12.2-18.8-18.6-27.9c-8.1-11.3-16.4-22.4-25.6-32.9
		c7,12.1,14.8,23.5,22.8,34.9c3.8,5.2,7.6,10.4,11.5,15.5C115.1,1853.1,112.1,1850.2,109,1847.2 M290.2,1773.9
		c15.5-30.2,32.9-49.1,53.2-57.9c4.1-1.8,7.5-2.7,9.9-2.7c1.4,0,2.5,0.3,3.1,1c0.9,1,3.2,5.5-5.4,23c-6.4,13-15,19.2-24.9,26.4
		c-8,5.8-17.1,12.3-25.9,23.5c-12.8,16.2-19.7,28.2-25.8,42.3c3.7-11.4,8-22.6,13.6-33.1c7.7-14.6,17.8-27.9,30.5-38.9
		c-7.1,4.4-13.6,10-19.1,16.4c-5.6,6.4-10.3,13.4-14.3,20.9c-4.8,9.2-8.5,19-11.1,29C276.9,1808.7,281.9,1790.1,290.2,1773.9
		 M225.3,1778.4c-3.3-2.7-6.8-5.6-10.7-8.8c-22.6-19-36.8-34-42.7-53.9c-2.6-9.1-1.2-10.3-1.2-10.4c0.2-0.1,0.4-0.2,0.7-0.2
		c2.6,0,10.2,4.8,22.6,14.2c20.5,15.7,32,31.8,48.5,59.9c7.1,12,10.9,21.7,13.1,28.7c-5.1-10.9-11.5-21.2-18.8-30.7
		c-8.8-11.3-18.9-21.8-30.5-30.3c9.7,10.5,19.1,21.1,27.8,32.4c5.2,6.7,10.2,13.7,15,20.8C242.1,1792.2,234.6,1786.1,225.3,1778.4
		 M253.3,1721.8c-15.4-27.9-31.3-56.8-30.4-85.4c0.6-19.6,4.3-20.9,4.7-21c0.1,0,0.1,0,0.2,0c1.9,0,7.2,4.3,14.9,21l0.3,0.7
		c9.9,21.4,11.7,25.2,16.7,52.9c2.6,14.4,3.2,29.3,3.1,40.3c-1.1-8.8-2.9-17.5-5.3-26.1c-3.8-13.3-9-26.3-16.1-38.3
		c4.6,13.1,9.1,26,12.8,39.2c3.2,11.1,5.8,22.4,8.3,33.7C259.5,1733.1,256.4,1727.4,253.3,1721.8 M364.1,1910.6
		c-1-4-2.1-8.1-3.1-12.5c-1.6-7.1-3.4-12.4-4.9-17.1c-3.8-11.4-6-18.2-0.6-37.4c3.4-12.2,5.5-15.8,6.4-16.9c1.1,1.7,2.5,6.9,3.1,8.9
		c1.4,5.2,2.7,8.4,4.1,12.1c2,5.1,4.2,10.8,7.7,23.6c6.7,25,7.3,43.5,1.9,59.9c-2.3,6.9-5.7,13.4-9,18.8c1.3-3.7,2.4-7.6,3.2-11.5
		c1.3-6.4,2-12.9,2-19.4c0-6.5-0.6-13.1-2-19.4c-1.3-6.4-3.3-12.6-6.1-18.5c1.4,6.3,2.7,12.6,3.5,18.9c0.8,6.3,1.2,12.7,1.2,19
		c0,6.3-0.4,12.7-1.2,19c-0.6,5-1.5,10-2.6,15c-0.1,0.1-0.2,0.3-0.3,0.4C371.1,1937.5,367.9,1925.2,364.1,1910.6 M424.1,1947
		c30.5,1.8,41.2,12,51.6,21.8l2.1,1.9c8.7,8.1,8.8,11.1,8.4,12c-0.3,0.6-1.8,2.7-11.8,2.7h0c-15.5,0-21.1-3-32.2-8.9
		c-2.6-1.4-5.4-2.9-8.7-4.5l-2.8-1.4c-11.2-5.7-25-12.7-39-15.2c9.9-0.2,19.8,0.4,29.6,2.1c15.5,2.6,30.6,7.6,44.9,14.7
		c-13-9.4-28.5-15.4-44.4-18.1c-12.7-2.1-25.9-2.1-38.5,0.4c-0.6,0-1.1-0.1-1.7-0.1C391.2,1950.3,406,1945.9,424.1,1947 M414,1866.6
		c10.7-31.1,17.1-38.1,31.1-53.3l0.4-0.4c7.7-8.4,10.3-9.2,11-9.2c0.1,0,0.2,0,0.2,0c0.3,0.1,2.7,1.9-0.1,22.7
		c-3.9,28.5-12.6,40.8-27.1,61.1l-1.3,1.8c-10,14.1-17.1,20.5-23.1,25.6c1.5-2,2.9-4.1,4.2-6.1c3.5-5.4,6.6-11,9.4-16.7
		c2.8-5.8,5.3-11.7,7.3-17.7c2.1-6,3.8-12.2,5-18.5l-7.4,17.5c-2.5,5.8-5.1,11.5-7.9,17.2c-2.7,5.7-5.7,11.3-8.6,16.8l-6,10.8
		c0,0,0,0,0,0C402.4,1908.7,406.3,1889,414,1866.6 M348.5,1980.8c7.1-6.7,14.1-13.3,20.8-20.1c0.1,0,0.2,0,0.2,0
		c19.1-6.4,42.2,5.3,59,13.9l2.8,1.4c3.2,1.6,6,3.1,8.6,4.5c11,5.9,17.7,9.5,34.4,9.5h0c9.4,0,14.5-1.8,16.1-5.6
		c1.6-4.1-1.3-9.3-9.6-17l-2-1.9c-11-10.4-22.3-21.1-54.4-23c-19.7-1.2-35.4,3.7-45.3,8c6.9-7.6,13.5-15.5,19.5-24.3
		c0.2-0.1,0.5-0.2,0.7-0.4c2-1.9,4-3.5,6.2-5.3c6.5-5.3,14.6-12,26.4-28.4l1.3-1.8c14.9-20.9,23.9-33.5,27.9-63.1
		c2.5-18,1.8-25.4-2.4-27.4c-3.6-1.7-8.1,1.1-16.5,10.2l-0.4,0.4c-14,15.3-21,22.9-32,54.9c-9.6,27.7-13.3,51.6-14.1,57.3
		c-5.7,8.3-11.8,16-18.3,23.2c2.1-4,4.1-8.4,5.6-12.9c5.7-17.3,5.1-36.6-1.8-62.5c-3.5-13-5.8-18.9-7.8-24.1
		c-1.4-3.6-2.6-6.7-4-11.6c-2.1-7.8-3.7-12.6-7.4-12.6c-3.2-0.1-6,3.3-10.8,20.5c-5.8,20.5-3.2,28.3,0.7,40
		c1.5,4.6,3.2,9.8,4.8,16.7c1,4.5,2.1,8.7,3.2,12.7c4.8,18.2,8.2,31.4-1.1,53.2c-4.3,4.2-8.7,8.4-13.2,12.6
		c-14.1,13.3-28.5,26.9-42.6,43.6c2.7-6.6,5.3-14.4,6.8-22.7c0.9-5.1,2-9.9,3.1-14.5c3.7-16.2,6.8-30.3,2-48
		c-6-22-12-33.1-18.2-32.9c-4.2,0.1-7.2,4.9-9.4,15c-4.4,20-1.2,33,1.9,45.6c1.5,6.2,3.1,12.6,3.7,19.7c0.3,3.3,0.6,6.3,0.9,9.2
		c1.8,16.6,3,27.5-4.8,46.3c0,0,0,0,0,0.1c-23.2,32.2-32.8,74-36.7,99.4c-1-12.1-1.9-24-2.8-35.7c-0.8-10.4-1.5-20.6-2.3-30.6
		c-4.8-59.1,1-88.9,9.7-134.1c3-15.7,6.5-33.4,9.9-54.7c1.1-6.7,1.9-13.1,2.7-19.5c0.1-0.2,0.1-0.4,0.2-0.6c0-0.1,0.1-0.9,0.2-2.2
		c0.3-2.9,0.6-5.8,0.9-8.7c9.1-24.7,15.2-39.2,33.4-62.2c8.5-10.7,16.9-16.7,25-22.6c10-7.2,19.4-14,26.3-28.1
		c7.2-14.6,8.7-23.9,4.6-28.2c-3.3-3.4-9.2-3.2-18.1,0.7c-21.3,9.2-39.4,28.9-55.5,60c-6.4,12.4-10.9,26.2-14,38.8
		c-0.1-32.8-4-55.5-5.5-63.1c0.2-2.9,2.4-31.4-2.5-58.3c-5.1-28.3-7.2-32.7-17.1-54l-0.3-0.7c-7.8-16.7-14.5-24.6-20.2-23.5
		c-5.3,1.1-7.8,8.9-8.3,25.3c-0.9,29.8,15.3,59.3,31,87.7c4.4,8,9,16.3,12.9,24.3c1.8,8.8,7.3,40.8,4.9,86.6
		c-1-4.4-2.4-9.1-4.3-13.9c-0.1-2.2-1-17.8-16.3-44c-16.4-28-28.6-45.1-49.6-61.2c-15.8-12.1-24.1-17.3-28.6-14.2
		c-3,2-3.1,6.6-0.6,15.4c6.2,21,20.8,36.5,44.1,56.1c3.9,3.3,7.4,6.2,10.7,8.8c15.8,12.9,25.3,20.7,35.9,40.1c0,0.1,0,0.1,0,0.2
		c6.9,16.8,6.9,33,6.6,38.4c-0.8,7-1.7,14.2-2.9,21.7c-3.4,21.2-6.8,39-9.8,54.6c-8.8,45.5-14.6,75.6-9.8,135.3
		c0.8,10,1.6,20.2,2.3,30.6c4.4,58.6,9.2,123.7,27.3,186.7c-13.1-23.9-35.3-65.3-52.1-101.5c-1.9-4.1-3.7-8.2-5.5-12.2
		c0-0.2-0.1-0.4-0.2-0.6c0,0-0.1-0.2-0.2-0.3c-2.9-6.6-5.6-13.3-8.1-19.9c0,0,0,0,0,0c0-0.2-3.4-14.8-2.8-32c0-0.1,0.1-0.1,0.1-0.2
		c0.2-1,1.6-3.7,3.1-6.8c3.8-7.7,10.2-20.7,14.5-37l0.9-3.5c5.8-21.5,9.6-35.7,4.5-57.3c-3.2-13.8-5-18.7-8.7-19.1
		c-3.5-0.4-5.9,3.8-10.1,12.6c-7.6,16-14.9,34.1-14.5,64.6c0.4,26.9,4.5,42.5,5.5,46c-0.2,4.5-0.1,8.8,0.1,12.7
		c-8.9-26.4-15.1-52.8-18.8-78.9c0-0.1,0-0.2,0-0.3c0-0.5-0.4-5.8-1.8-13.9c-0.2-2-0.4-4.1-0.6-6.1c-0.9-10.3-1-20.5-1.2-31.4
		c-0.3-18.5-0.5-37.4-4.6-57c0,0,0,0,0,0c1.6-17.8,5.7-26.3,11.8-39.3c2-4.2,4.3-9,6.7-14.8c10.3-24,16-38.3,14.2-53.2
		c-1.2-9.9-3.1-14.3-6.6-15.1c-4-1-7.7,3.4-10.5,7.4c-1,1.5-2.1,2.8-3.1,4.2c-6.7,9.1-12.5,16.9-18.7,42.3
		c-3.2,13.2-3.2,28.3-2.2,41c-4.4-10.6-10.2-21.4-18.2-32.6c-0.1-0.3-0.2-0.5-0.4-0.8c0,0-0.1-0.1-0.3-0.4
		c-6.2-8.2-10.8-18.7-16.2-30.8c-4.5-10.2-9.6-21.8-16.6-34c-4.6-8-7.6-15-10.6-21.8c-7-15.8-12.4-28.3-31.8-41.3
		c-9.1-6.1-14.6-7.6-17.9-4.8c-5.3,4.5-0.6,17.8,9.3,39.3c10.5,22.7,23.8,37.8,44.9,57.6c17,16,29.1,30.7,33.6,36.3
		c0,0.1,0,0.1,0.1,0.2c31.4,42.5,32,80.6,32.5,117.4c0.1,4.2,0.1,8.2,0.2,12.3c-2.2-6.8-4.9-13.9-8.4-21.1
		c-14-28.8-28.6-47.1-48.8-61.2c-16.5-11.4-24.5-14.6-28.7-11.4c-3.2,2.5-3.1,7.8,0.3,17.2c7.4,20.3,14.3,27.3,29.3,42.8
		c2.5,2.6,5.3,5.4,8.3,8.5c5.2,5.4,10.2,10.1,15.1,14.6c14.8,13.8,27.6,25.8,36.1,49.8c4.8,34.7,14.1,69.7,28,104.8
		c-4.7-5.1-10.8-10.7-18.5-15.7c-17.3-11.1-34-15.9-54.2-15.4c-1.9,0-3.5,0.1-5.1,0.1c-12.4,0.2-15.7,0.3-27.7,5.9
		c-6.1,2.9-12.3,6.5-12,11.4c0.3,4.2,5.1,7.6,15.8,11c13.4,4.3,20.7,3.1,30,1.6c5.3-0.8,11.2-1.8,19.5-2
		c21.4-0.5,39.3,0.7,59.2,19.8c1.8,4.1,3.6,8.2,5.5,12.4c24.2,52.1,59.6,115.1,63,121.1c2.1,6.3,4.4,12.6,6.9,18.8
		c12.9,32.7,23.3,63.2,29.9,93c-5.9-11.9-14.4-27-23.8-35.7c-16.8-15.6-26.8-18-44-17.7c-2.5,0-10.3,0.1-11.9,5.4
		c-1.7,5.2,4.3,12.9,17.7,22.6c6.3,4.6,13.5,7.4,21.1,10.4c15.5,6.1,31.4,12.4,44.6,34.4c0,0,0.1,0.1,0.1,0.1
		c7.6,46,5.4,91-11.3,140.4c-0.4,1.2,0.2,2.5,1.4,2.9c0.2,0.1,0.5,0.1,0.7,0.1c0.9,0,1.8-0.6,2.2-1.5c25-74.3,18-138.5-5.9-210.6
		c-3.2-23.9,1.5-40.5,8.7-65.5l2-7c8.6-30.6,9.3-47,2.8-67.5c-3.5-10.9-6.8-15.8-11-15.8h0c-4.1,0-7.4,4.8-10.6,15.6l-0.6,2
		c-5,16.4-10.1,33.3-9.2,63.5c0.4,11.9,2.4,25.8,4.9,38.4c-1.2-3-2.3-6-3.5-9.1c-2.4-6-4.5-11.9-6.6-18c0-0.3-0.1-0.6-0.3-0.9
		c0,0,0-0.1-0.1-0.1c-16.6-48.9-24.2-99.8-28.9-148.5c0.1-1.5,3.7-69.5,37-117.4c0.2-0.1,0.3-0.3,0.4-0.5
		c0.2-0.4,23.7-35.1,66.3-28.4c0.1,0,0.1,0.1,0.2,0.1c9.7,2.3,19.7,9.1,31.2,16.9c7.6,5.2,15.6,10.6,24.3,15.4
		c21.9,11.7,29.5,13.7,52.7,17c4.6,0.7,8.4,1,11.6,1c6.2,0,9.7-1.3,10.8-4c1.5-3.5-1.3-7.8-9.1-14c-3.2-2.5-6.2-5.4-9.5-8.5
		c-11.1-10.7-25-24-54.7-29.8c-34.3-6.7-53.2-0.2-57.1,1.4c-20.7-3.2-37.1,2.7-48.9,10.2C322.4,2005.5,335.6,1993,348.5,1980.8"/>
	<path style="clip-path:url(#SVGID_00000006699845729663845010000001344540317104291246_);fill:#83AF38;" d="M265.7,1163.5
		c-3.1-12.7-6-24.6-1.9-43.6c2.5-11.3,5-11.5,5.1-11.5c0,0,0,0,0,0c2.2,0,7.8,8,13.6,29.6c4.5,16.7,1.5,30.2-2,45.8
		c-1.1,4.7-2.2,9.5-3.1,14.7c-1,5.6-2.6,11.1-4.4,16c0.9-3.8,1.7-7.6,2.3-11.4c1-6.4,1.4-12.9,1.5-19.4c0-6.5-0.4-13-1.3-19.4
		c-0.9-6.4-2.3-12.8-4.3-18.9c0.6,6.4,1.3,12.8,1.7,19.2c0.4,6.4,0.6,12.8,0.6,19.1c0,6.4-0.3,12.7-0.7,19.1
		c-0.3,3.8-0.6,7.5-1,11.3c0.2-6.9-0.5-13.5-1.3-21.1c-0.3-2.9-0.6-5.9-0.9-9.2C268.8,1176.4,267.2,1169.8,265.7,1163.5
		 M386.9,1214.1c28.4,5.6,41.2,17.8,52.5,28.6c3.3,3.2,6.5,6.2,9.8,8.8c8.1,6.4,7.7,8.6,7.7,8.6c0,0-1.6,2.6-17.6,0.3
		c-22.6-3.2-30-5.1-51.2-16.5c-8.6-4.6-16.4-9.9-23.9-15.1c-7.7-5.3-15.1-10.3-22.3-13.8c10,2.7,20,5,29.8,7.9
		c12.9,3.7,25.5,8.2,37.7,14.2c-5.4-4.1-11.3-7.6-17.5-10.4c-6.2-2.9-12.7-5.1-19.2-7.1c-10.8-3.1-21.8-5.2-32.9-6.5
		C348.3,1211.4,364.1,1209.7,386.9,1214.1 M265.6,1499.8c-0.9-29.4,3.9-45.2,9-62l0.6-2c3.7-12.3,6.3-12.3,6.3-12.3
		c0.1,0,2.7,0.2,6.6,12.6c6.2,19.5,5.5,35.3-2.9,64.9l-2,7c-4.9,17.3-8.7,30.6-9.6,45.1c-0.1-0.5-0.2-1.1-0.4-1.7
		c-0.7-14.2-0.6-28.3,0.7-42.3c1.4-16.5,4.5-32.9,8.5-49.1c-6.6,15.4-10.4,32.1-11.9,48.8c-0.8,9.6-0.9,19.4-0.1,29
		C268,1525.3,265.9,1511.5,265.6,1499.8 M248.7,1604.7c-7.3-2.9-14.2-5.6-20.1-9.8c-13.9-10.1-16.6-15.8-16.1-17.6
		c0.3-1,2.5-2.1,7.7-2.2c0.8,0,1.5,0,2.2,0c14.1,0,23,2.1,38.6,16.6c7,6.4,13.7,17.1,19,27c-0.1-0.1-0.1-0.2-0.2-0.2
		c-2.7-3.6-5.8-7-9.1-10.1c-3.3-3.1-6.9-5.9-10.7-8.4c-3.8-2.5-7.8-4.7-12-6.3c3.5,2.8,7,5.6,10.4,8.4c3.4,2.8,6.7,5.7,9.9,8.8
		c3.2,3,6.3,6.1,9.4,9.3c0.1,0.1,0.2,0.3,0.4,0.4C268.5,1612.5,258.2,1608.4,248.7,1604.7 M129.4,1354.3c-2,0-4,0-6,0.1
		c-8.6,0.2-14.7,1.2-20.1,2c-9.1,1.5-15.6,2.5-27.9-1.5c-11.9-3.8-12.6-6.5-12.6-7c0-0.6,0.5-2.8,9.4-7c11.1-5.2,13.7-5.3,25.9-5.5
		c1.5,0,3.2-0.1,5.1-0.1c19.3-0.5,35.2,4.1,51.6,14.7c4.5,2.9,8.5,6.1,11.9,9.3c-2.5-1.6-5.2-3.2-7.8-4.6
		c-5.9-3.2-12.1-6.1-18.6-8.2c-3.3-1-6.6-1.8-10-2.3c-3.4-0.4-6.8-0.7-10.2-0.6c-6.8,0-13.5,1-20.1,2.1c6.7,0.2,13.4,0.1,20,0.5
		c6.6,0.4,13,1.5,19.3,3.5c6.3,1.9,12.3,4.6,18.4,7.3c4.5,2,9,4,13.3,6.4c0.3,0.3,0.6,0.6,0.9,0.9
		C157.8,1355.8,144,1354.3,129.4,1354.3 M170.1,1277.3c-0.5-29.5,6.4-46.4,14-62.6c1.1-2.4,4-8.4,5.5-9.8c1.6,2.2,3.9,12,4.7,15.4
		c4.8,20.5,1.3,33.6-4.5,55.1l-0.9,3.5c-4,15.1-9.9,27.3-13.6,35c0.7-3.7,1.3-7.4,1.8-11c0.9-5.8,1.7-11.7,2.5-17.5
		c0.7-5.8,1.5-11.7,2-17.6c0.6-5.9,1.2-11.7,1.4-17.7c-1.7,5.7-3,11.5-4.1,17.3c-1.1,5.8-2,11.7-2.8,17.5
		c-0.7,5.9-1.3,11.7-1.7,17.7c-0.3,4.4-0.5,8.9-0.5,13.3C172.4,1308.6,170.4,1295.6,170.1,1277.3 M114.8,1203.9
		c-4.8-4.5-9.8-9.2-14.9-14.4c-3-3.2-5.8-6-8.3-8.6c-15.1-15.4-21.3-21.8-28.3-41.2c-3.7-10.2-2-11.9-1.8-12.1
		c0.2-0.2,0.6-0.3,1.2-0.3c2.2,0,7.9,1.9,22.2,11.8c19.5,13.6,33.7,31.4,47.3,59.4c6.5,13.4,10.4,27.1,12.7,37.8
		c-5.1-12.1-11.5-23.7-18.8-34.6c-9.2-13.7-19.7-26.6-31.9-37.8c10.2,13,20.1,26,29.1,39.7c6.7,10.1,13,20.4,19,31
		C134.4,1222.3,125.1,1213.6,114.8,1203.9 M142.5,1081c5.9-24.5,11.5-32,17.9-40.7c1-1.4,2.1-2.8,3.1-4.3c3.8-5.4,5.5-5.6,5.7-5.6
		c0,0,0,0,0,0c0.1,0,1.9,0.6,3.2,11.3c1.7,13.7-3.9,27.6-13.9,50.8c-2.4,5.6-4.7,10.4-6.6,14.6c-3.7,7.9-6.7,14.3-8.9,22.1
		c0.3-2.6,0.7-5.2,1.1-7.8c1-6.3,2.2-12.6,3.7-18.8c1.4-6.2,3.2-12.3,5.1-18.4c1.9-6.1,4.1-12.1,6.3-18.2
		c-3.5,5.5-6.4,11.3-8.8,17.3c-2.4,6-4.4,12.2-5.9,18.6c-1.4,6.3-2.5,12.8-3,19.2c-0.2,2.4-0.3,4.8-0.3,7.1
		C139.6,1114.6,138.8,1096.3,142.5,1081 M81.4,1048.2c-20.6-19.5-33.7-34.2-43.9-56.2c-11.7-25.5-12.2-32.5-10.5-34
		c0,0,0.3-0.2,1-0.2c1.4,0,4.6,0.8,11.4,5.3c18.2,12.2,23.5,24.1,30.1,39.3c2.9,6.6,6.1,14,10.8,22.2c6.9,12,11.9,23.5,16.4,33.6
		c1.6,3.6,3.1,7.1,4.7,10.4c-0.4-0.4-0.8-0.9-1.2-1.3c-5.9-9.5-12.2-18.8-18.6-27.9c-8.1-11.3-16.4-22.4-25.6-32.9
		c7,12.1,14.8,23.5,22.8,34.9c3.8,5.2,7.6,10.4,11.5,15.5C87.5,1054.1,84.5,1051.2,81.4,1048.2 M262.6,974.9
		c15.5-30.2,32.9-49.1,53.2-57.9c4.1-1.8,7.5-2.7,9.9-2.7c1.4,0,2.5,0.3,3.1,1c0.9,1,3.2,5.5-5.4,23c-6.4,13-15,19.2-24.9,26.4
		c-8,5.8-17.1,12.3-25.9,23.5c-12.8,16.2-19.7,28.2-25.8,42.3c3.7-11.4,8-22.6,13.6-33.1c7.7-14.6,17.8-27.9,30.5-38.9
		c-7.1,4.4-13.6,10-19.1,16.4c-5.6,6.4-10.3,13.4-14.3,20.9c-4.8,9.2-8.5,19-11.1,29C249.3,1009.7,254.3,991.1,262.6,974.9
		 M197.7,979.4c-3.3-2.7-6.8-5.6-10.7-8.8c-22.6-19-36.8-34-42.7-53.9c-2.6-9.1-1.2-10.3-1.2-10.4c0.2-0.1,0.4-0.2,0.7-0.2
		c2.6,0,10.2,4.8,22.6,14.2c20.5,15.7,32,31.8,48.5,59.9c7.1,12,10.9,21.7,13.1,28.7c-5.1-10.9-11.5-21.2-18.8-30.7
		c-8.8-11.3-18.9-21.8-30.5-30.3c9.7,10.5,19.1,21.1,27.8,32.4c5.2,6.7,10.2,13.7,15,20.8C214.5,993.2,207,987.1,197.7,979.4
		 M225.6,922.8c-15.4-27.9-31.3-56.8-30.4-85.4c0.6-19.6,4.3-20.9,4.7-21c0.1,0,0.1,0,0.2,0c1.9,0,7.2,4.3,14.9,21l0.3,0.7
		c9.9,21.4,11.7,25.2,16.7,52.9c2.6,14.4,3.2,29.3,3.1,40.3c-1.1-8.8-2.9-17.5-5.3-26.1c-3.8-13.3-9-26.4-16.1-38.3
		c4.6,13.1,9.1,26,12.8,39.2c3.2,11.1,5.8,22.4,8.3,33.7C231.9,934.1,228.7,928.4,225.6,922.8 M336.5,1111.6c-1-4-2.1-8.1-3.1-12.5
		c-1.6-7.1-3.4-12.4-4.9-17.1c-3.8-11.4-6-18.2-0.6-37.4c3.4-12.2,5.5-15.8,6.4-16.9c1.1,1.7,2.5,6.9,3.1,8.9
		c1.4,5.2,2.7,8.4,4.1,12.1c2,5.1,4.2,10.8,7.7,23.6c6.7,25,7.3,43.5,1.9,59.9c-2.3,6.9-5.7,13.4-9,18.8c1.3-3.7,2.4-7.6,3.2-11.5
		c1.3-6.4,2-12.9,2-19.4c0-6.5-0.6-13.1-2-19.4c-1.3-6.4-3.3-12.6-6.1-18.5c1.4,6.3,2.7,12.6,3.5,18.9c0.8,6.3,1.2,12.7,1.2,19
		c0,6.3-0.4,12.7-1.2,19c-0.6,5-1.5,10-2.6,15c-0.1,0.1-0.2,0.3-0.3,0.4C343.5,1138.5,340.3,1126.2,336.5,1111.6 M396.5,1148
		c30.5,1.8,41.2,12,51.6,21.8l2.1,1.9c8.7,8.1,8.8,11.1,8.4,12c-0.3,0.6-1.8,2.7-11.8,2.7h0c-15.5,0-21.1-3-32.2-8.9
		c-2.6-1.4-5.4-2.9-8.7-4.5l-2.8-1.4c-11.2-5.7-25-12.7-39-15.2c9.9-0.2,19.8,0.4,29.6,2.1c15.5,2.6,30.6,7.6,44.9,14.7
		c-13-9.4-28.5-15.4-44.4-18.1c-12.7-2.1-25.9-2.1-38.5,0.4c-0.6,0-1.1-0.1-1.7-0.1C363.6,1151.3,378.4,1146.9,396.5,1148
		 M386.4,1067.6c10.7-31.1,17.1-38.1,31.1-53.3l0.4-0.4c7.7-8.4,10.3-9.2,11-9.2c0.1,0,0.2,0,0.2,0c0.3,0.1,2.7,1.9-0.1,22.7
		c-3.9,28.5-12.6,40.8-27.1,61.1l-1.3,1.8c-10,14.1-17.1,20.5-23.1,25.6c1.5-2,2.9-4.1,4.2-6.1c3.5-5.4,6.6-11,9.4-16.7
		c2.8-5.8,5.3-11.7,7.3-17.7c2.1-6,3.8-12.2,5-18.5l-7.4,17.5c-2.5,5.8-5.1,11.5-7.9,17.2c-2.7,5.7-5.7,11.3-8.6,16.8l-6,10.8
		c0,0,0,0,0,0C374.8,1109.7,378.7,1090,386.4,1067.6 M320.9,1181.8c7.1-6.7,14.1-13.3,20.8-20.1c0.1,0,0.2,0,0.2,0
		c19.1-6.4,42.2,5.3,59,13.9l2.8,1.4c3.2,1.6,6,3.1,8.6,4.5c11,5.9,17.7,9.5,34.4,9.5h0c9.4,0,14.5-1.8,16.1-5.6
		c1.6-4.1-1.3-9.3-9.6-17l-2-1.9c-11-10.4-22.3-21.1-54.4-23c-19.7-1.2-35.4,3.7-45.3,8c6.9-7.6,13.5-15.5,19.5-24.3
		c0.2-0.1,0.5-0.2,0.7-0.4c2-1.9,4-3.5,6.2-5.3c6.5-5.3,14.6-12,26.4-28.4l1.3-1.8c14.9-20.9,23.9-33.5,27.9-63.1
		c2.5-18,1.8-25.4-2.4-27.4c-3.6-1.7-8.1,1.1-16.5,10.2l-0.4,0.4c-14,15.3-21,22.9-32,54.9c-9.6,27.7-13.3,51.6-14.1,57.3
		c-5.7,8.3-11.8,16-18.3,23.2c2.1-4,4.1-8.4,5.6-12.9c5.7-17.3,5.1-36.6-1.8-62.5c-3.5-13-5.8-18.9-7.8-24.1
		c-1.4-3.6-2.6-6.7-4-11.6c-2.1-7.8-3.7-12.6-7.4-12.6c-3.2-0.1-6,3.3-10.8,20.5c-5.8,20.5-3.2,28.3,0.7,40
		c1.5,4.6,3.2,9.8,4.8,16.7c1,4.5,2.1,8.7,3.2,12.7c4.8,18.2,8.2,31.4-1.1,53.2c-4.3,4.2-8.7,8.4-13.2,12.6
		c-14.1,13.3-28.5,26.9-42.6,43.6c2.7-6.6,5.3-14.4,6.8-22.7c0.9-5.1,2-9.9,3.1-14.5c3.7-16.2,6.8-30.3,2-48
		c-6-22-12-33.1-18.2-32.9c-4.2,0.1-7.2,4.9-9.4,15c-4.4,20-1.2,33,1.9,45.6c1.5,6.2,3.1,12.6,3.7,19.7c0.3,3.3,0.6,6.3,0.9,9.2
		c1.8,16.6,3,27.5-4.8,46.3c0,0,0,0,0,0.1c-23.2,32.2-32.8,74-36.7,99.4c-1-12.1-1.9-24-2.8-35.7c-0.8-10.4-1.5-20.6-2.3-30.6
		c-4.8-59.1,1-88.9,9.7-134.1c3-15.7,6.5-33.4,9.9-54.7c1.1-6.7,1.9-13.1,2.7-19.5c0.1-0.2,0.1-0.4,0.2-0.6c0-0.1,0.1-0.9,0.2-2.2
		c0.3-2.9,0.6-5.8,0.9-8.7c9.2-24.7,15.2-39.2,33.4-62.2c8.5-10.7,16.9-16.7,25-22.6c10-7.2,19.4-14,26.3-28.1
		c7.2-14.6,8.7-23.9,4.6-28.2c-3.3-3.4-9.2-3.2-18.1,0.7c-21.3,9.2-39.4,28.9-55.5,60c-6.4,12.4-10.9,26.2-14,38.8
		c-0.1-32.8-4-55.5-5.5-63.1c0.2-2.9,2.4-31.4-2.5-58.3c-5.1-28.3-7.2-32.7-17.1-54l-0.3-0.7c-7.8-16.7-14.5-24.6-20.2-23.5
		c-5.3,1.1-7.8,8.9-8.3,25.3c-0.9,29.8,15.3,59.3,31,87.7c4.4,8,9,16.3,12.9,24.3c1.8,8.8,7.3,40.8,4.9,86.6
		c-1-4.4-2.4-9.1-4.3-13.9c-0.1-2.2-1-17.8-16.3-44c-16.4-28-28.6-45.1-49.6-61.2c-15.8-12.1-24.1-17.3-28.6-14.2
		c-3,2-3.1,6.6-0.6,15.4c6.2,21,20.8,36.5,44.1,56.1c3.9,3.3,7.4,6.2,10.7,8.8c15.8,12.9,25.3,20.7,35.9,40.1c0,0.1,0,0.1,0,0.2
		c6.9,16.8,6.9,33,6.6,38.4c-0.8,7-1.7,14.2-2.9,21.7c-3.4,21.2-6.8,39-9.8,54.6c-8.8,45.5-14.6,75.6-9.8,135.3
		c0.8,10,1.6,20.2,2.3,30.6c4.4,58.6,9.2,123.7,27.3,186.7c-13.1-23.9-35.3-65.3-52.1-101.5c-1.9-4.1-3.7-8.2-5.5-12.2
		c0-0.2-0.1-0.4-0.2-0.6c0,0-0.1-0.2-0.2-0.3c-2.9-6.6-5.6-13.3-8.1-19.9c0,0,0,0,0,0c0-0.2-3.4-14.8-2.8-32c0-0.1,0.1-0.1,0.1-0.2
		c0.2-1,1.6-3.7,3.1-6.8c3.8-7.7,10.2-20.7,14.5-37l0.9-3.5c5.8-21.5,9.6-35.7,4.5-57.3c-3.2-13.8-5-18.7-8.7-19.1
		c-3.5-0.4-5.9,3.8-10.1,12.6c-7.6,16-14.9,34.1-14.5,64.6c0.4,26.9,4.5,42.4,5.5,46c-0.2,4.5-0.1,8.8,0.1,12.7
		c-8.9-26.4-15.1-52.8-18.8-78.9c0-0.1,0-0.2,0-0.3c0-0.5-0.4-5.8-1.8-13.9c-0.2-2-0.4-4.1-0.6-6.1c-0.9-10.3-1-20.5-1.2-31.4
		c-0.3-18.5-0.5-37.4-4.6-57c0,0,0,0,0,0c1.6-17.8,5.7-26.3,11.8-39.3c2-4.2,4.3-9,6.7-14.8c10.3-24,16-38.3,14.2-53.2
		c-1.2-9.9-3.1-14.3-6.6-15.1c-4-1-7.7,3.4-10.5,7.4c-1,1.5-2.1,2.8-3.1,4.2c-6.7,9.1-12.5,16.9-18.7,42.3
		c-3.2,13.2-3.2,28.3-2.2,41c-4.4-10.6-10.2-21.4-18.2-32.6c-0.1-0.3-0.2-0.5-0.4-0.8c0,0-0.1-0.1-0.3-0.4
		c-6.2-8.2-10.8-18.7-16.2-30.8c-4.5-10.2-9.6-21.8-16.6-34c-4.6-8-7.6-15-10.6-21.8c-7-15.8-12.4-28.3-31.8-41.3
		c-9.1-6.1-14.6-7.6-17.9-4.8c-5.3,4.5-0.6,17.8,9.3,39.3c10.5,22.7,23.8,37.8,44.9,57.6c17,16,29.1,30.7,33.6,36.3
		c0,0.1,0,0.1,0.1,0.2c31.4,42.5,32,80.6,32.5,117.4c0.1,4.2,0.1,8.2,0.2,12.3c-2.2-6.8-4.9-13.9-8.4-21.1
		c-14-28.8-28.6-47.1-48.8-61.2c-16.5-11.4-24.5-14.6-28.7-11.4c-3.2,2.5-3.1,7.8,0.3,17.2c7.4,20.3,14.3,27.3,29.3,42.8
		c2.5,2.6,5.3,5.4,8.3,8.5c5.2,5.4,10.2,10.1,15.1,14.6c14.8,13.8,27.6,25.8,36.1,49.8c4.8,34.7,14.1,69.7,28,104.8
		c-4.7-5.1-10.8-10.7-18.5-15.7c-17.3-11.1-34-15.9-54.2-15.5c-1.9,0-3.5,0.1-5.1,0.1c-12.4,0.2-15.7,0.3-27.7,5.9
		c-6.1,2.9-12.3,6.5-12,11.4c0.3,4.2,5.1,7.6,15.8,11.1c13.4,4.3,20.7,3.1,30,1.6c5.3-0.8,11.2-1.8,19.5-2
		c21.4-0.5,39.3,0.7,59.2,19.8c1.8,4.1,3.6,8.2,5.5,12.4c24.2,52.1,59.6,115.1,63,121.1c2.1,6.3,4.4,12.6,6.9,18.8
		c12.9,32.7,23.3,63.2,29.9,93c-5.9-11.9-14.4-27-23.8-35.7c-16.8-15.6-26.8-18-44-17.7c-2.5,0-10.3,0.1-11.9,5.4
		c-1.7,5.2,4.3,12.9,17.7,22.6c6.3,4.6,13.5,7.4,21.1,10.4c15.5,6.1,31.4,12.4,44.6,34.4c0,0,0.1,0.1,0.1,0.1
		c7.6,46,5.4,91-11.3,140.4c-0.4,1.2,0.2,2.5,1.4,2.9c0.2,0.1,0.5,0.1,0.7,0.1c0.9,0,1.8-0.6,2.2-1.5c25-74.3,18-138.5-5.9-210.6
		c-3.2-23.9,1.5-40.5,8.7-65.5l2-7c8.6-30.6,9.3-47,2.8-67.5c-3.5-10.9-6.8-15.8-11-15.8h0c-4.1,0-7.4,4.8-10.6,15.6l-0.6,2
		c-5,16.4-10.1,33.3-9.2,63.5c0.4,11.9,2.4,25.8,4.9,38.4c-1.2-3-2.3-6-3.5-9.1c-2.4-6-4.5-11.9-6.6-18c0-0.3-0.1-0.6-0.3-0.9
		c0,0,0-0.1-0.1-0.1c-16.6-48.9-24.2-99.8-28.9-148.5c0.1-1.5,3.8-69.5,37-117.4c0.2-0.1,0.3-0.3,0.4-0.5
		c0.2-0.4,23.7-35.1,66.3-28.4c0.1,0,0.1,0.1,0.2,0.1c9.7,2.3,19.7,9.1,31.2,16.9c7.6,5.2,15.6,10.6,24.3,15.4
		c21.9,11.7,29.5,13.7,52.7,17c4.6,0.7,8.4,1,11.6,1c6.2,0,9.7-1.3,10.8-4c1.5-3.5-1.3-7.8-9.1-14c-3.2-2.5-6.2-5.4-9.5-8.5
		c-11.1-10.7-25-24-54.7-29.8c-34.3-6.7-53.2-0.2-57.1,1.4c-20.7-3.2-37.1,2.7-48.9,10.2C294.8,1206.5,308,1194,320.9,1181.8"/>
	<path style="clip-path:url(#SVGID_00000006699845729663845010000001344540317104291246_);fill:#83AF38;" d="M317.1,2769.5
		c-3.1-12.7-6-24.6-1.9-43.6c2.5-11.3,5-11.5,5.1-11.5c0,0,0,0,0,0c2.2,0,7.8,8,13.6,29.6c4.5,16.7,1.5,30.2-2,45.8
		c-1.1,4.7-2.2,9.5-3.1,14.7c-1,5.6-2.6,11.1-4.4,16c0.9-3.8,1.7-7.6,2.3-11.4c1-6.4,1.4-12.9,1.5-19.4c0-6.5-0.4-13-1.3-19.4
		c-0.9-6.4-2.3-12.8-4.3-18.9c0.6,6.4,1.3,12.8,1.7,19.2c0.4,6.4,0.6,12.8,0.6,19.1c0,6.4-0.3,12.7-0.7,19.1
		c-0.3,3.8-0.6,7.5-1,11.3c0.2-6.9-0.5-13.5-1.3-21.1c-0.3-2.9-0.6-5.9-0.9-9.2C320.3,2782.4,318.7,2775.8,317.1,2769.5
		 M438.3,2820.1c28.4,5.6,41.2,17.8,52.5,28.6c3.3,3.2,6.5,6.2,9.8,8.8c8.1,6.4,7.7,8.6,7.7,8.6c0,0-1.6,2.6-17.6,0.3
		c-22.6-3.2-30-5.1-51.2-16.5c-8.6-4.6-16.4-9.9-23.9-15.1c-7.7-5.3-15.1-10.3-22.3-13.8c10,2.7,20,5,29.8,7.9
		c12.9,3.7,25.5,8.2,37.7,14.2c-5.4-4.1-11.3-7.6-17.5-10.4c-6.2-2.9-12.7-5.1-19.2-7.1c-10.8-3.1-21.8-5.2-32.9-6.5
		C399.7,2817.4,415.5,2815.7,438.3,2820.1 M317,3105.8c-0.9-29.4,3.9-45.2,9-62l0.6-2c3.7-12.3,6.3-12.3,6.3-12.3
		c0.1,0,2.7,0.2,6.6,12.6c6.2,19.5,5.5,35.3-2.9,64.9l-2,7c-4.9,17.3-8.7,30.6-9.6,45.1c-0.1-0.5-0.2-1.1-0.4-1.7
		c-0.7-14.2-0.6-28.3,0.7-42.3c1.4-16.5,4.5-32.9,8.5-49.1c-6.6,15.4-10.4,32.1-11.9,48.8c-0.8,9.6-0.9,19.4-0.1,29
		C319.4,3131.3,317.3,3117.5,317,3105.8 M300.1,3210.7c-7.3-2.9-14.2-5.6-20.1-9.8c-13.9-10.1-16.6-15.8-16.1-17.6
		c0.3-1,2.5-2.1,7.7-2.2c0.8,0,1.5,0,2.2,0c14.1,0,23,2.1,38.6,16.6c7,6.4,13.7,17.1,19,27c-0.1-0.1-0.1-0.2-0.2-0.3
		c-2.7-3.6-5.8-7-9.1-10.1c-3.3-3.1-6.9-5.9-10.7-8.4c-3.8-2.5-7.8-4.7-12-6.3c3.5,2.8,7,5.6,10.5,8.4c3.4,2.8,6.7,5.7,9.9,8.8
		c3.2,3,6.3,6.1,9.4,9.3c0.1,0.1,0.2,0.3,0.4,0.4C319.9,3218.5,309.6,3214.4,300.1,3210.7 M180.8,2960.3c-2,0-4,0-6,0.1
		c-8.6,0.2-14.7,1.2-20.1,2c-9.1,1.5-15.6,2.5-27.9-1.5c-11.9-3.8-12.6-6.5-12.6-7c0-0.6,0.5-2.8,9.4-7c11.1-5.2,13.7-5.3,25.9-5.5
		c1.5,0,3.2-0.1,5.1-0.1c19.3-0.5,35.2,4.1,51.6,14.7c4.5,2.9,8.5,6.1,11.9,9.3c-2.5-1.6-5.2-3.2-7.8-4.6
		c-5.9-3.2-12.1-6.1-18.6-8.2c-3.3-1-6.6-1.8-10-2.3c-3.4-0.4-6.8-0.7-10.2-0.6c-6.8,0-13.5,1-20.1,2.1c6.7,0.2,13.4,0.1,20,0.5
		c6.6,0.4,13,1.5,19.3,3.5c6.3,1.9,12.3,4.6,18.4,7.3c4.5,2,9,4,13.3,6.4c0.3,0.3,0.6,0.6,0.9,0.9
		C209.2,2961.8,195.4,2960.3,180.8,2960.3 M221.5,2883.3c-0.5-29.5,6.4-46.4,14-62.6c1.1-2.4,4-8.4,5.5-9.8c1.6,2.2,3.9,12,4.7,15.4
		c4.8,20.5,1.3,33.6-4.5,55.1l-0.9,3.5c-4,15.1-9.9,27.3-13.6,35c0.7-3.7,1.3-7.4,1.8-11c0.9-5.8,1.7-11.7,2.5-17.5
		c0.7-5.8,1.5-11.7,2-17.6c0.6-5.9,1.2-11.7,1.4-17.7c-1.7,5.7-3,11.5-4.1,17.3c-1.1,5.8-2,11.7-2.8,17.5
		c-0.7,5.9-1.3,11.7-1.7,17.7c-0.3,4.4-0.5,8.9-0.5,13.3C223.9,2914.6,221.8,2901.6,221.5,2883.3 M166.2,2809.9
		c-4.8-4.5-9.8-9.2-14.9-14.4c-3-3.2-5.8-6-8.3-8.6c-15.1-15.4-21.3-21.8-28.3-41.2c-3.7-10.2-2-11.9-1.8-12.1
		c0.2-0.2,0.6-0.3,1.2-0.3c2.2,0,7.9,1.9,22.2,11.8c19.5,13.6,33.7,31.4,47.3,59.4c6.5,13.4,10.4,27.1,12.7,37.8
		c-5.1-12.1-11.5-23.7-18.8-34.6c-9.2-13.7-19.7-26.6-31.9-37.8c10.2,13,20.1,26,29.1,39.7c6.7,10.1,13,20.4,19,31
		C185.9,2828.3,176.5,2819.6,166.2,2809.9 M193.9,2687c5.9-24.5,11.5-32,17.9-40.7c1-1.4,2.1-2.8,3.1-4.3c3.8-5.4,5.5-5.6,5.7-5.6
		c0,0,0,0,0,0c0.1,0,1.9,0.6,3.2,11.3c1.7,13.7-3.9,27.6-13.9,50.8c-2.4,5.6-4.7,10.4-6.6,14.6c-3.7,7.9-6.7,14.3-8.9,22.1
		c0.3-2.6,0.7-5.2,1.1-7.8c1-6.3,2.2-12.6,3.7-18.8c1.4-6.2,3.2-12.3,5.1-18.4c1.9-6.1,4.1-12.1,6.3-18.2
		c-3.5,5.5-6.4,11.3-8.8,17.3c-2.4,6-4.4,12.2-5.9,18.6c-1.4,6.3-2.5,12.8-3,19.2c-0.2,2.4-0.3,4.8-0.3,7.1
		C191.1,2720.6,190.2,2702.3,193.9,2687 M132.8,2654.2c-20.6-19.5-33.7-34.2-43.9-56.2c-11.7-25.5-12.2-32.5-10.5-34
		c0,0,0.3-0.2,1-0.2c1.4,0,4.6,0.8,11.4,5.3c18.2,12.2,23.5,24.1,30.1,39.3c2.9,6.6,6.1,14,10.8,22.2c6.9,12,11.9,23.5,16.4,33.6
		c1.6,3.6,3.1,7.1,4.7,10.4c-0.4-0.4-0.8-0.9-1.2-1.3c-5.9-9.5-12.2-18.8-18.6-27.9c-8.1-11.3-16.4-22.4-25.6-32.9
		c7,12.1,14.8,23.5,22.8,34.9c3.8,5.2,7.6,10.4,11.5,15.5C138.9,2660.1,135.9,2657.2,132.8,2654.2 M314,2580.9
		c15.5-30.2,32.9-49.1,53.2-57.9c4.1-1.8,7.5-2.7,9.9-2.7c1.4,0,2.5,0.3,3.1,1c0.9,1,3.2,5.5-5.4,23c-6.4,13-15,19.2-24.9,26.4
		c-8,5.8-17.1,12.3-25.9,23.5c-12.8,16.2-19.7,28.2-25.8,42.3c3.7-11.4,8-22.6,13.6-33.1c7.7-14.6,17.8-27.9,30.5-38.9
		c-7.1,4.4-13.6,10-19.1,16.4c-5.6,6.4-10.3,13.4-14.3,20.9c-4.8,9.2-8.5,19-11.1,29C300.7,2615.7,305.7,2597.1,314,2580.9
		 M249.1,2585.4c-3.3-2.7-6.8-5.6-10.7-8.8c-22.6-19-36.8-34-42.7-53.9c-2.6-9.1-1.2-10.3-1.2-10.4c0.2-0.1,0.4-0.2,0.7-0.2
		c2.6,0,10.2,4.8,22.6,14.2c20.5,15.7,32,31.8,48.5,59.9c7.1,12,10.9,21.7,13.1,28.7c-5.1-10.9-11.5-21.2-18.8-30.7
		c-8.8-11.3-18.9-21.8-30.5-30.3c9.7,10.5,19.1,21.1,27.8,32.4c5.2,6.7,10.2,13.7,15,20.8C265.9,2599.2,258.4,2593.1,249.1,2585.4
		 M277.1,2528.8c-15.4-27.9-31.3-56.8-30.4-85.4c0.6-19.6,4.3-20.9,4.7-21c0.1,0,0.1,0,0.2,0c1.9,0,7.2,4.3,14.9,21l0.3,0.7
		c9.9,21.4,11.7,25.2,16.7,52.9c2.6,14.4,3.2,29.3,3.1,40.3c-1.1-8.8-2.9-17.5-5.3-26.1c-3.8-13.3-9-26.4-16.1-38.3
		c4.6,13.1,9.1,26,12.8,39.2c3.2,11.1,5.8,22.4,8.3,33.7C283.3,2540.1,280.2,2534.4,277.1,2528.8 M387.9,2717.6
		c-1-4-2.1-8.1-3.1-12.5c-1.6-7.1-3.4-12.4-4.9-17.1c-3.8-11.4-6-18.2-0.6-37.4c3.4-12.2,5.5-15.8,6.4-16.9c1.1,1.7,2.5,6.9,3.1,8.9
		c1.4,5.2,2.7,8.4,4.1,12.1c2,5.1,4.2,10.8,7.7,23.6c6.7,25,7.3,43.5,1.9,59.9c-2.3,6.9-5.7,13.4-9,18.8c1.3-3.7,2.4-7.6,3.2-11.5
		c1.3-6.4,2-12.9,2-19.4c0-6.5-0.6-13.1-2-19.4c-1.3-6.4-3.3-12.6-6.1-18.5c1.4,6.3,2.7,12.6,3.5,18.9c0.8,6.3,1.2,12.7,1.2,19
		c0,6.3-0.4,12.7-1.2,19c-0.6,5-1.5,10-2.6,15c-0.1,0.1-0.2,0.3-0.3,0.4C394.9,2744.5,391.7,2732.2,387.9,2717.6 M447.9,2754
		c30.5,1.8,41.2,12,51.6,21.8l2.1,1.9c8.7,8.1,8.8,11.1,8.4,12c-0.3,0.6-1.8,2.7-11.8,2.7h0c-15.5,0-21.1-3-32.2-8.9
		c-2.6-1.4-5.4-2.9-8.7-4.5l-2.8-1.4c-11.2-5.7-25-12.7-39-15.2c9.9-0.2,19.8,0.4,29.6,2.1c15.5,2.6,30.6,7.6,44.9,14.7
		c-13-9.4-28.5-15.4-44.4-18.1c-12.7-2.1-25.9-2.1-38.5,0.4c-0.6,0-1.1-0.1-1.7-0.1C415,2757.3,429.8,2752.9,447.9,2754
		 M437.8,2673.6c10.7-31.1,17.1-38.1,31.1-53.3l0.4-0.4c7.7-8.4,10.3-9.2,11-9.2c0.1,0,0.2,0,0.2,0c0.3,0.1,2.7,1.9-0.1,22.7
		c-3.9,28.5-12.6,40.8-27.1,61.1l-1.3,1.8c-10,14.1-17.1,20.5-23.1,25.6c1.5-2,2.9-4.1,4.2-6.1c3.5-5.4,6.6-11,9.4-16.7
		c2.8-5.8,5.3-11.7,7.3-17.7c2.1-6,3.8-12.2,5-18.5l-7.4,17.5c-2.5,5.8-5.1,11.5-7.9,17.2c-2.7,5.7-5.7,11.3-8.6,16.8l-6,10.8
		c0,0,0,0,0,0C426.2,2715.7,430.1,2696,437.8,2673.6 M372.3,2787.8c7.1-6.7,14.1-13.3,20.8-20.1c0.1,0,0.2,0,0.2,0
		c19.1-6.4,42.2,5.3,59,13.9l2.8,1.4c3.2,1.6,6,3.1,8.6,4.5c11,5.9,17.7,9.5,34.4,9.5h0c9.4,0,14.5-1.8,16.1-5.6
		c1.6-4.1-1.3-9.3-9.6-17l-2-1.9c-11-10.4-22.3-21.1-54.4-23c-19.7-1.2-35.4,3.7-45.3,8c6.9-7.6,13.5-15.5,19.5-24.3
		c0.2-0.1,0.5-0.2,0.7-0.4c2-1.9,4-3.5,6.2-5.3c6.5-5.3,14.6-12,26.4-28.4l1.3-1.8c14.9-20.9,23.9-33.5,27.9-63.1
		c2.5-18,1.8-25.4-2.4-27.4c-3.6-1.7-8.1,1.1-16.5,10.2l-0.4,0.4c-14,15.3-21,22.9-32,54.9c-9.6,27.7-13.3,51.6-14.1,57.3
		c-5.7,8.3-11.8,16-18.3,23.2c2.1-4,4.1-8.4,5.6-12.9c5.7-17.3,5.1-36.6-1.8-62.5c-3.5-13-5.8-18.9-7.8-24.1
		c-1.4-3.6-2.6-6.7-4-11.6c-2.1-7.8-3.7-12.6-7.4-12.6c-3.2-0.1-6,3.3-10.8,20.5c-5.8,20.5-3.2,28.3,0.7,40
		c1.5,4.6,3.2,9.8,4.8,16.7c1,4.5,2.1,8.7,3.2,12.7c4.8,18.2,8.2,31.4-1.1,53.2c-4.3,4.2-8.7,8.4-13.2,12.6
		c-14.1,13.3-28.5,26.9-42.6,43.6c2.7-6.6,5.3-14.4,6.8-22.7c0.9-5.1,2-9.9,3.1-14.5c3.7-16.2,6.8-30.3,2-48
		c-6-22-12-33.1-18.2-32.9c-4.2,0.1-7.2,4.9-9.4,15c-4.4,20-1.2,33,1.9,45.6c1.5,6.2,3.1,12.6,3.7,19.7c0.3,3.3,0.6,6.3,0.9,9.2
		c1.8,16.6,3,27.5-4.8,46.3c0,0,0,0,0,0.1c-23.2,32.2-32.8,74-36.7,99.4c-1-12.1-1.9-24-2.8-35.7c-0.8-10.4-1.5-20.6-2.3-30.6
		c-4.8-59.1,1-88.9,9.7-134.1c3-15.7,6.5-33.4,9.9-54.7c1.1-6.7,1.9-13.1,2.7-19.5c0.1-0.2,0.1-0.4,0.2-0.6c0-0.1,0.1-0.9,0.2-2.2
		c0.3-2.9,0.6-5.8,0.9-8.7c9.1-24.7,15.2-39.2,33.4-62.2c8.5-10.7,16.9-16.7,25-22.6c10-7.2,19.4-14,26.3-28.1
		c7.2-14.6,8.7-23.9,4.6-28.2c-3.3-3.4-9.2-3.2-18.1,0.7c-21.3,9.2-39.4,28.9-55.5,60c-6.4,12.4-10.9,26.2-14,38.8
		c-0.1-32.8-4-55.5-5.5-63.1c0.2-2.9,2.4-31.4-2.5-58.3c-5.1-28.3-7.2-32.7-17.1-54l-0.3-0.7c-7.8-16.7-14.5-24.6-20.2-23.5
		c-5.3,1.1-7.8,8.9-8.3,25.3c-0.9,29.8,15.3,59.3,31,87.7c4.4,8,9,16.3,12.9,24.3c1.8,8.8,7.3,40.8,4.9,86.6
		c-1-4.4-2.4-9.1-4.3-13.9c-0.1-2.2-1-17.8-16.3-44c-16.4-28-28.6-45.1-49.6-61.2c-15.8-12.1-24.1-17.3-28.6-14.2
		c-3,2-3.1,6.6-0.6,15.4c6.2,21,20.8,36.5,44.1,56.1c3.9,3.3,7.4,6.2,10.7,8.8c15.8,12.9,25.3,20.7,35.9,40.1c0,0.1,0,0.1,0,0.2
		c6.9,16.8,6.9,33,6.6,38.4c-0.8,7-1.7,14.2-2.9,21.7c-3.4,21.2-6.8,39-9.8,54.6c-8.8,45.5-14.6,75.6-9.8,135.3
		c0.8,10,1.6,20.2,2.3,30.6c4.4,58.6,9.2,123.7,27.3,186.7c-13.1-23.9-35.3-65.3-52.1-101.5c-1.9-4.1-3.7-8.2-5.5-12.2
		c0-0.2-0.1-0.4-0.2-0.6c0,0-0.1-0.2-0.2-0.3c-2.9-6.6-5.6-13.3-8.1-19.9c0,0,0,0,0,0c0-0.2-3.4-14.8-2.8-32c0-0.1,0.1-0.1,0.1-0.2
		c0.2-1,1.6-3.7,3.1-6.8c3.8-7.7,10.2-20.7,14.5-37l0.9-3.5c5.8-21.5,9.6-35.7,4.5-57.3c-3.2-13.8-5-18.7-8.7-19.1
		c-3.5-0.4-5.9,3.8-10.1,12.6c-7.6,16-14.9,34.1-14.5,64.6c0.4,26.9,4.5,42.4,5.5,46c-0.2,4.5-0.1,8.8,0.1,12.7
		c-8.9-26.4-15.1-52.8-18.8-78.9c0-0.1,0-0.2,0-0.3c0-0.5-0.4-5.8-1.8-13.9c-0.2-2-0.4-4.1-0.6-6.1c-0.9-10.3-1-20.5-1.2-31.4
		c-0.3-18.5-0.5-37.4-4.6-57c0,0,0,0,0,0c1.6-17.8,5.7-26.3,11.8-39.3c2-4.2,4.3-9,6.7-14.8c10.3-24,16-38.3,14.2-53.2
		c-1.2-9.9-3.1-14.3-6.6-15.1c-4-1-7.7,3.4-10.5,7.4c-1,1.5-2.1,2.8-3.1,4.2c-6.7,9.1-12.5,16.9-18.7,42.3
		c-3.2,13.2-3.2,28.3-2.2,41c-4.4-10.6-10.2-21.4-18.2-32.6c-0.1-0.3-0.2-0.5-0.4-0.8c0,0-0.1-0.1-0.3-0.4
		c-6.2-8.2-10.8-18.7-16.2-30.8c-4.5-10.2-9.6-21.8-16.6-34c-4.6-8-7.6-15-10.6-21.8c-7-15.8-12.4-28.3-31.8-41.3
		c-9.1-6.1-14.6-7.6-17.9-4.8c-5.3,4.5-0.6,17.8,9.3,39.3c10.5,22.7,23.8,37.8,44.9,57.6c17,16,29.1,30.7,33.6,36.3
		c0,0.1,0,0.1,0.1,0.2c31.4,42.5,32,80.6,32.5,117.4c0.1,4.2,0.1,8.2,0.2,12.3c-2.2-6.8-4.9-13.9-8.4-21.1
		c-14-28.8-28.6-47.1-48.8-61.2c-16.5-11.4-24.5-14.6-28.7-11.4c-3.2,2.5-3.1,7.8,0.3,17.2c7.4,20.3,14.3,27.3,29.3,42.8
		c2.5,2.6,5.3,5.4,8.3,8.5c5.2,5.4,10.2,10.1,15.1,14.6c14.8,13.8,27.6,25.8,36.1,49.8c4.8,34.6,14.1,69.7,28,104.8
		c-4.7-5.1-10.8-10.7-18.5-15.7c-17.3-11.1-34-15.9-54.2-15.5c-1.9,0-3.5,0.1-5.1,0.1c-12.4,0.2-15.7,0.3-27.7,5.9
		c-6.1,2.9-12.3,6.5-12,11.4c0.3,4.2,5.1,7.6,15.8,11.1c13.4,4.3,20.7,3.1,30,1.6c5.3-0.8,11.2-1.8,19.5-2
		c21.4-0.5,39.3,0.7,59.2,19.8c1.8,4.1,3.6,8.2,5.5,12.4c24.2,52.1,59.6,115.1,63,121.1c2.1,6.3,4.4,12.6,6.9,18.8
		c12.9,32.7,23.3,63.2,29.9,93c-5.9-11.9-14.4-27-23.8-35.7c-16.8-15.6-26.8-18-44-17.7c-2.5,0-10.3,0.1-11.9,5.4
		c-1.7,5.2,4.3,12.9,17.7,22.6c6.3,4.6,13.5,7.4,21.1,10.4c15.5,6.1,31.4,12.4,44.6,34.4c0,0,0.1,0.1,0.1,0.1
		c7.6,46,5.4,91-11.3,140.4c-0.4,1.2,0.2,2.5,1.4,2.9c0.2,0.1,0.5,0.1,0.7,0.1c0.9,0,1.8-0.6,2.2-1.6c25-74.3,18-138.5-5.9-210.6
		c-3.2-23.9,1.5-40.5,8.7-65.5l2-7c8.6-30.6,9.3-47,2.8-67.5c-3.5-10.9-6.8-15.8-11-15.8h0c-4.1,0-7.4,4.8-10.6,15.6l-0.6,2
		c-5,16.4-10.1,33.3-9.2,63.5c0.4,11.9,2.4,25.8,4.9,38.4c-1.2-3-2.3-6-3.5-9.1c-2.4-6-4.5-11.9-6.6-18c0-0.3-0.1-0.6-0.3-0.9
		c0,0,0-0.1-0.1-0.1c-16.6-48.9-24.2-99.8-28.9-148.5c0.1-1.5,3.8-69.5,37-117.4c0.2-0.1,0.3-0.3,0.4-0.5
		c0.2-0.4,23.7-35.1,66.3-28.4c0.1,0,0.1,0.1,0.2,0.1c9.7,2.3,19.7,9.1,31.2,16.9c7.6,5.2,15.6,10.6,24.3,15.4
		c21.9,11.7,29.5,13.7,52.7,17c4.6,0.7,8.4,1,11.6,1c6.2,0,9.7-1.3,10.8-4c1.5-3.5-1.3-7.8-9.1-14c-3.2-2.5-6.2-5.4-9.5-8.5
		c-11.1-10.7-25-24-54.7-29.8c-34.3-6.7-53.2-0.2-57.1,1.4c-20.7-3.2-37.1,2.7-48.9,10.2C346.2,2812.5,359.4,2800,372.3,2787.8"/>
</g>
</svg>
